<?xml version="1.0" encoding="UTF-8" standalone="no"?>
<svg
   xmlns:dc="http://purl.org/dc/elements/1.1/"
   xmlns:cc="http://creativecommons.org/ns#"
   xmlns:rdf="http://www.w3.org/1999/02/22-rdf-syntax-ns#"
   xmlns:svg="http://www.w3.org/2000/svg"
   xmlns="http://www.w3.org/2000/svg"
   id="svg1811"
   version="1.1"
   viewBox="0 0 90.388016 122.78589"
   height="122.78589mm"
   width="90.388016mm">
  <defs
     id="defs1805" />
  <metadata
     id="metadata1808">
    <rdf:RDF>
      <cc:Work
         rdf:about="">
        <dc:format>image/svg+xml</dc:format>
        <dc:type
           rdf:resource="http://purl.org/dc/dcmitype/StillImage" />
        <dc:title></dc:title>
      </cc:Work>
    </rdf:RDF>
  </metadata>
  <g
     transform="translate(-59.883375,-76.857055)"
     id="layer1">
    <g
       transform="translate(12.85119,-52.160714)"
       id="g1892">
      <path
         id="path14"
         style="fill:#bf2033;fill-opacity:1;fill-rule:nonzero;stroke:none;stroke-width:0.03527778"
         d="m 136.56647,234.37291 h -12.16024 v -12.16025 h 12.16024 v 12.16025" />
      <path
         id="path16"
         style="fill:#ffffff;fill-opacity:1;fill-rule:nonzero;stroke:none;stroke-width:0.03527778"
         d="m 129.22164,226.84816 c -0.0212,-0.47272 0.11995,-0.80786 0.6985,-1.14653 0.57856,-0.34219 1.16064,-0.22577 1.56281,0.0459 0.40216,0.27164 0.56444,0.58561 0.68791,0.70203 0.11995,0.11642 0.41275,0.29281 0.62442,-0.0952 0.21167,-0.38806 0.24342,-0.70203 0.25753,-0.92428 0.0141,-0.22578 -0.11642,-0.6738 -0.93133,-0.84314 -0.81492,-0.16933 -1.50284,-0.25752 -2.1202,-0.0494 -0.61736,0.21167 -1.1183,0.63853 -1.29117,0.98778 -0.17286,0.34572 -0.23636,0.80786 -0.13052,1.13947 0.10936,0.33514 0.26105,0.51859 0.30691,0.62089 0.0494,0.10231 0.0776,0.13406 0.0282,0.15523 -0.11994,0.0529 -0.96308,0.22577 -1.58044,0.78669 -0.62089,0.56444 -0.95603,0.96661 -0.94897,1.71803 0.007,0.75142 0.59619,1.65806 1.35466,2.09197 0.81139,0.46567 1.68628,0.58209 2.19428,0.58209 0.60325,0.004 1.37583,-0.0741 2.02142,-0.34925 0.65264,-0.2787 0.97366,-0.58561 1.26647,-1.01248 0.27164,-0.40922 0.27164,-0.762 0.27164,-0.92075 0,-0.16227 -0.0459,-0.31397 -0.0141,-0.34219 0.0282,-0.0317 0.27516,-0.007 0.53975,-0.0811 0.26105,-0.0741 0.6985,-0.40922 0.90664,-1.01953 0.11994,-0.35631 0.11994,-0.57856 0.11288,-0.74436 -0.007,-0.16933 -0.13052,-0.31397 -0.22577,-0.16228 -0.0952,0.15522 -0.0952,0.29986 -0.27517,0.49036 -0.18344,0.18697 -0.762,0.32809 -1.22061,0.32809 -0.45861,0 -0.94897,-0.10231 -1.37231,-0.007 -0.42333,0.0952 -0.58208,0.12347 -0.93486,0.32808 -0.34925,0.20461 -0.59619,0.57502 -0.71966,0.83961 -0.127,0.26105 -0.16228,0.39158 -0.14112,0.53622 0.0212,0.14464 0.0529,0.16228 0.16934,0.0388 0.11641,-0.12348 0.33866,-0.39159 0.53975,-0.508 0.29986,-0.17992 0.70203,-0.11289 1.2453,-0.0847 0.53975,0.0282 0.89606,0.0282 0.92428,0.0564 0.0282,0.0282 0.0388,0.64206 -0.22225,0.98073 -0.26105,0.33513 -0.71967,0.53269 -1.19944,0.66322 -0.43039,0.11289 -0.80786,0.13405 -1.28764,0.06 -0.52211,-0.0776 -1.016,-0.23283 -1.58397,-0.75847 -0.5715,-0.52564 -0.64206,-1.20297 -0.61031,-1.67922 0.0282,-0.47272 0.24694,-0.85372 0.60325,-1.18181 0.35631,-0.32808 0.50447,-0.381 0.50447,-0.381 0,0 0.48331,0.30339 0.889,0.41981 0.41628,0.11642 0.65617,0.15169 0.9137,0.0917 0.254,-0.0564 0.42686,-0.0952 0.46566,-0.35983 0.0388,-0.26106 -0.1905,-0.39864 -0.50447,-0.50095 -0.5468,-0.17639 -1.54869,-0.0212 -1.54869,-0.0212 0,0 -0.12348,-0.13758 -0.15875,-0.22578 -0.0353,-0.0882 -0.067,-0.26458 -0.067,-0.26458" />
      <g
         transform="matrix(0.03596217,0,0,-0.03596217,-273.86224,715.21255)"
         id="g18">
        <path
           id="path20"
           style="fill:#ffffff;fill-opacity:1;fill-rule:nonzero;stroke:none"
           d="M 11421.5,13797.7 H 8959.38 V 16300 h 2462.12 v -2502.3" />
      </g>
      <g
         transform="matrix(0.03593218,0,0,-0.03593218,-273.86224,715.21255)"
         id="g22">
        <path
           id="path24"
           style="fill:#006260;fill-opacity:1;fill-rule:nonzero;stroke:none"
           d="m 11431.1,15067.8 c 0,680.5 -551.6,1232.2 -1232.2,1232.2 -680.55,0 -1232.23,-551.7 -1232.23,-1232.2 0,-2.1 0.07,-4.2 0.07,-6.3 h -0.05 v -1252 h 2464.11 v 1239.9 c 0.1,6.1 0.3,12.2 0.3,18.4" />
      </g>
      <path
         id="path26"
         style="fill:#ffffff;fill-opacity:1;fill-rule:nonzero;stroke:none;stroke-width:0.03527778"
         d="m 106.24523,203.21205 c -14.241643,-0.83961 -21.762864,-9.7155 -25.08956,-17.51189 -2.720268,-6.37469 -2.435225,-11.68047 -2.435225,-11.68047 h 28.741865 c 0,0 -1.43933,-29.11475 -29.284435,-29.11475 -12.729634,0 -28.220811,9.26747 -28.220811,29.96847 0,20.701 20.770849,42.33686 41.538523,42.33686 29.972003,0 39.906223,-21.38186 42.784893,-30.42002 -8.47373,14.99658 -17.2967,17.04975 -28.03525,16.4218" />
      <path
         id="path28"
         style="fill:#ffffff;fill-opacity:1;fill-rule:nonzero;stroke:none;stroke-width:0.03527778"
         d="m 122.26839,187.72511 c 7.60236,0 13.76539,-6.16303 13.76539,-13.76186 0,-7.60236 -6.16303,-13.76539 -13.76539,-13.76539 -7.60236,0 -13.76539,6.16303 -13.76539,13.76539 0,7.59883 6.16303,13.76186 13.76539,13.76186" />
      <g
         transform="matrix(0.03596287,0,0,-0.03596287,-273.86224,715.21255)"
         id="g30">
        <path
           id="path32"
           style="fill:#006260;fill-opacity:1;fill-rule:nonzero;stroke:none"
           d="m 10493.7,16300 c 442.5,-106.5 796.9,-438.8 927.4,-868.2 v 868.2 h -927.4" />
      </g>
      <g
         transform="matrix(0.03596287,0,0,-0.03596287,-273.86224,715.21255)"
         id="g34">
        <path
           id="path36"
           style="fill:#006260;fill-opacity:1;fill-rule:nonzero;stroke:none"
           d="m 8959.07,15428.2 c 149.4,451.5 492.28,769.2 918.44,871.8 h -918.44 v -871.8" />
      </g>
      <path
         id="path38"
         style="fill:#006260;fill-opacity:1;fill-rule:nonzero;stroke:none;stroke-width:0.03527778"
         d="m 49.173897,248.925 c 0,0.89252 -0.04445,1.58397 -0.7366,1.85208 -0.469194,0.20108 -1.206147,0.17992 -1.206147,0.40217 0,0.24694 0.06703,0.31397 0.357364,0.31397 0.69215,0 1.139119,-0.0917 2.545997,-0.0917 1.385006,0 1.876072,0.0917 2.680406,0.0917 0.11183,0 0.446616,-0.0212 0.446616,-0.24695 0,-0.3563 -0.871008,-0.13405 -1.742016,-0.46919 -0.201084,-0.0882 -0.424745,-0.20108 -0.424745,-0.80433 v -4.35328 c 0,-0.31397 0,-0.44803 0.111831,-0.44803 0.11183,0 1.094669,0.71614 2.54635,0.71614 3.059641,0 4.288366,-2.83633 4.288366,-4.40267 0,-2.14489 -1.764241,-3.75003 -4.623152,-3.75003 -0.893587,0 -1.80975,0.0882 -2.702631,0.0882 -1.027642,0 -2.05493,-0.0882 -3.082572,-0.0882 -0.289983,0 -0.468842,0.10937 -0.468842,0.37748 0,0.33514 0.446617,0.33514 1.049514,0.381 0.893233,0.067 0.960261,0.3563 0.960261,1.1818 z m 1.920875,-9.29217 c 0,-0.75847 0.111831,-1.13947 1.519061,-1.13947 2.814109,0 3.506259,2.01083 3.506259,3.17147 0,0.91722 -0.423687,3.19264 -3.662539,3.19264 -1.317625,0 -1.362781,-0.13053 -1.362781,-0.46567 v -4.75897" />
      <path
         id="path40"
         style="fill:#006260;fill-opacity:1;fill-rule:nonzero;stroke:none;stroke-width:0.03527778"
         d="m 60.073671,249.7505 c 0,0.77963 -0.536222,0.95955 -1.072091,1.02658 -0.53587,0.0882 -1.094317,0.0459 -1.094317,0.42333 -0.02223,0.24695 0.245534,0.29281 0.357011,0.29281 1.072445,0 2.077156,-0.0917 3.10515,-0.0917 0.826206,0 1.674989,0.0917 2.501195,0.0917 0.08925,0 0.581025,-0.0212 0.581025,-0.29281 0,-0.31044 -0.491773,-0.33514 -0.893587,-0.42333 -1.563158,-0.31045 -1.563158,-0.49036 -1.563158,-1.60514 v -3.86644 c 0,-0.42334 0,-0.60325 0.669572,-0.60325 0.581025,0 1.183923,0.28927 1.407231,0.67027 l 3.283303,5.78556 c 0.111477,0.20108 0.201083,0.20108 2.010127,0.20108 0.715081,0 1.094317,0.0212 2.032706,0.0212 0.15628,0 0.223308,-0.0882 0.223308,-0.20108 0,-0.24342 -0.446969,-0.26812 -1.049514,-0.40217 -1.117247,-0.26811 -1.563511,-0.78317 -1.988255,-1.44992 l -2.635603,-4.33564 c -0.11183,-0.17639 -0.178505,-0.26458 -0.178505,-0.37747 0,-0.33514 2.411941,-1.16064 2.411941,-3.43958 0,-2.76931 -2.255661,-3.43959 -4.109508,-3.43959 -1.005064,0 -2.032706,0.0882 -3.037417,0.0882 -0.669925,0 -2.412294,-0.0882 -2.5908,-0.0882 -0.201436,0 -0.491419,0.0882 -0.491419,0.35631 0,0.31397 0.535869,0.33514 0.781403,0.35631 0.80398,0.067 1.340202,0.17991 1.340202,0.64911 z m 1.921228,-10.65389 c 0,-0.69145 0.558095,-0.69145 0.759178,-0.69145 1.809044,0 3.506611,0.53622 3.506611,2.74814 0,2.79047 -1.720144,2.96686 -3.015192,2.96686 -1.049866,0 -1.250597,-0.0635 -1.250597,-0.26811 v -4.75544" />
      <path
         id="path42"
         style="fill:#006260;fill-opacity:1;fill-rule:nonzero;stroke:none;stroke-width:0.03527778"
         d="m 70.325393,244.61405 c 0,4.26508 3.149248,7.18961 7.303559,7.18961 5.474051,0 7.594248,-4.10633 7.594248,-7.28133 0,-3.03742 -2.233084,-7.10142 -7.482417,-7.10142 -4.266142,0 -7.41539,3.17147 -7.41539,7.19314 z m 2.367492,0.0423 c 0,-4.70958 2.546702,-6.56519 4.958292,-6.56519 3.550356,0 5.204883,3.21733 5.204883,6.096 0,1.11831 -0.201083,6.94972 -5.115277,6.94972 -1.831271,0 -5.047898,-1.38641 -5.047898,-6.48053" />
      <path
         id="path44"
         style="fill:#006260;fill-opacity:1;fill-rule:nonzero;stroke:none;stroke-width:0.03527778"
         d="m 97.775033,247.29163 c 0,-1.38288 -0.02117,-1.62983 -1.340556,-1.62983 -1.273527,0 -1.495777,-0.0423 -1.495777,-0.31044 0,-0.42686 0.448027,-0.42686 0.783166,-0.42686 0.934861,0 1.852084,0.0459 2.790471,0.0459 0.959556,0 1.919113,-0.0459 2.589393,-0.0459 0.49388,0 0.7373,0.0459 0.7373,0.26811 0,0.35983 -0.49036,0.35983 -1.09361,0.35983 -0.46919,0 -1.051277,0.0212 -1.051277,0.77964 v 3.52778 c 0,0.2928 -0.06703,0.71614 -0.465666,0.91722 -1.252361,0.58208 -2.681111,1.02658 -4.981224,1.02658 -4.0005,0 -7.72936,-2.30011 -7.72936,-6.8333 0,-4.71311 3.50661,-7.54945 8.198557,-7.54945 1.495777,0 2.501193,0.24695 3.707693,0.58209 0.87136,0.24341 0.93839,0.55738 0.93839,2.7693 0,0.17639 -0.09172,0.17639 -0.292806,0.17639 -0.490361,0 -0.804334,-2.8575 -4.219224,-2.8575 -1.566333,0 -5.96547,0.42333 -5.96547,6.67808 0,4.17689 3.17147,6.36764 5.672667,6.36764 0.560916,0 1.25236,-0.0705 1.788583,-0.22578 0.737304,-0.22225 1.42875,-0.28927 1.42875,-2.34597 v -1.27353" />
      <path
         id="path46"
         style="fill:#006260;fill-opacity:1;fill-rule:nonzero;stroke:none;stroke-width:0.03527778"
         d="m 104.98934,249.7505 c 0,0.77963 -0.53623,0.95955 -1.07245,1.02658 -0.53622,0.0882 -1.09361,0.0459 -1.09361,0.42333 -0.0247,0.24695 0.24342,0.29281 0.35631,0.29281 1.07244,0 2.07786,-0.0917 3.10444,-0.0917 0.8255,0 1.6757,0.0917 2.5012,0.0917 0.0917,0 0.58208,-0.0212 0.58208,-0.29281 0,-0.31044 -0.49036,-0.33514 -0.89253,-0.42333 -1.56633,-0.31045 -1.56633,-0.49036 -1.56633,-1.60514 v -3.86644 c 0,-0.42334 0,-0.60325 0.67028,-0.60325 0.58208,0 1.18533,0.28927 1.40758,0.67027 l 3.28436,5.78556 c 0.11289,0.20108 0.20108,0.20108 2.01083,0.20108 0.71261,0 1.09361,0.0212 2.032,0.0212 0.15523,0 0.22225,-0.0882 0.22225,-0.20108 0,-0.24342 -0.4445,-0.26812 -1.04775,-0.40217 -1.1183,-0.26811 -1.56633,-0.78317 -1.98966,-1.44992 l -2.63525,-4.33564 c -0.11289,-0.17639 -0.17992,-0.26458 -0.17992,-0.37747 0,-0.33514 2.413,-1.16064 2.413,-3.43958 0,-2.76931 -2.25425,-3.43959 -4.10986,-3.43959 -1.00542,0 -2.032,0.0882 -3.03742,0.0882 -0.67028,0 -2.413,-0.0882 -2.58939,-0.0882 -0.20108,0 -0.49389,0.0882 -0.49389,0.35631 0,0.31397 0.53623,0.33514 0.78317,0.35631 0.80433,0.067 1.34056,0.17991 1.34056,0.64911 z m 1.91911,-10.65389 c 0,-0.69145 0.56091,-0.69145 0.762,-0.69145 1.80975,0 3.50661,0.53622 3.50661,2.74814 0,2.79047 -1.72156,2.96686 -3.01625,2.96686 -1.05128,0 -1.25236,-0.0635 -1.25236,-0.26811 v -4.75544" />
      <path
         id="path48"
         style="fill:#006260;fill-opacity:1;fill-rule:nonzero;stroke:none;stroke-width:0.03527778"
         d="m 118.47956,239.31886 c 0,-0.57856 -0.22225,-0.69145 -1.05128,-0.87136 -0.69144,-0.13406 -0.98072,-0.17639 -0.98072,-0.4445 0,-0.20109 0.31044,-0.26812 0.64558,-0.26812 0.82903,0 2.65995,0.0882 3.21734,0.0882 0.67027,0 3.82058,-0.0882 5.71852,-0.0882 0.33514,0 0.33514,0.24342 0.33514,0.71262 v 2.14488 c 0,0.0882 -0.0882,0.13406 -0.17991,0.13406 -0.28928,0 -0.24342,-0.24342 -0.60325,-1.00542 -0.33514,-0.77964 -0.4445,-1.13947 -4.24392,-1.13947 -0.80081,0 -0.93839,0.29281 -0.93839,1.05128 v 3.86292 c 0,0.44802 0.33514,0.49036 1.11831,0.49036 h 1.9438 c 1.651,0 1.13947,-1.91911 1.69686,-1.91911 0.28928,0 0.31397,0.20108 0.31397,0.4445 0,0.51505 -0.0917,0.82902 -0.0917,1.8803 0,0.93486 0.0917,1.53811 0.0917,2.16253 0,0.20461 -0.0247,0.381 -0.24694,0.381 -0.33514,0 -0.35631,-0.35631 -0.46919,-1.00542 -0.20109,-1.16064 -0.40217,-1.31586 -3.15031,-1.31586 -1.04775,0 -1.2065,0.13406 -1.2065,0.57856 v 4.33564 c 0,1.00188 0.0917,1.11477 2.68111,1.11477 1.52047,0 2.032,-0.22225 2.5012,-0.75847 1.07244,-1.22767 0.96308,-1.80975 1.34055,-1.80975 0.20108,0 0.22578,0.11289 0.22578,0.22225 0,0.0917 -0.0706,0.20108 -0.0917,0.35983 l -0.42333,2.27895 c -0.067,0.3563 -0.20109,0.46567 -0.51506,0.46567 h -6.36411 c -2.48003,0 -2.70228,0.0917 -2.92806,0.0917 -0.17638,0 -0.53269,0 -0.53269,-0.26811 0,-0.33514 0.39864,-0.28928 0.95956,-0.44803 0.57855,-0.17639 1.22766,-0.067 1.22766,-1.00542 v -10.4528" />
      <path
         id="path50"
         style="fill:#006260;fill-opacity:1;fill-rule:nonzero;stroke:none;stroke-width:0.03527778"
         d="m 136.39361,240.81816 c 0,0.0882 -0.067,0.17639 -0.20108,0.17639 -0.762,0 0,-2.81517 -3.03742,-2.81517 -1.74272,0 -2.43769,0.98425 -2.43769,2.07787 0,3.21733 6.70278,2.794 6.70278,7.39422 0,2.87866 -2.07786,4.15219 -4.78014,4.15219 -0.381,0 -1.40758,-0.17639 -2.16606,-0.33161 -1.38641,-0.2928 -1.62983,-0.69497 -1.62983,-2.05669 0,-0.60325 0.067,-1.94381 0.51153,-1.94381 0.58208,0 0.0917,0.64911 0.762,1.87678 0.22225,0.40217 0.98072,1.69686 2.8575,1.69686 2.12019,0 2.97039,-1.29469 2.97039,-2.413 0,-3.39372 -6.69925,-3.17147 -6.69925,-7.45772 0,-1.87678 1.38289,-3.75356 4.21922,-3.75356 0.31397,0 0.75847,0.0212 1.2065,0.11289 1.72155,0.33514 1.72155,0.57856 1.72155,1.42875 v 1.85561" />
      <path
         id="path52"
         style="fill:#006260;fill-opacity:1;fill-rule:nonzero;stroke:none;stroke-width:0.03527778"
         d="m 59.275688,223.54263 c 0,-0.5715 -0.304447,-0.55033 -1.624189,-0.64911 -0.263877,-0.0212 -0.669924,-0.0212 -0.669924,-0.29633 0,-0.31397 0.365477,-0.33514 0.608894,-0.33514 0.751416,0 1.522941,0.0811 2.274358,0.0811 0.588786,0 1.360311,-0.0811 1.786819,-0.0811 0.223309,0 0.466725,0.06 0.466725,0.3175 -0.04022,0.254 -0.283986,0.31397 -0.690033,0.31397 -1.279525,0 -1.340203,0.35278 -1.340203,1.83092 v 9.54617 c 0,0.37394 -0.04057,0.74789 -0.345369,0.74789 -0.263878,0 -0.527756,-0.27517 -0.771525,-0.55034 l -8.629297,-9.70491 c -0.04057,-0.0388 -0.101952,-0.0776 -0.16263,-0.0776 -0.06068,0 -0.06068,0.0988 -0.06068,0.37394 l 0.04057,6.31825 c 0,0.49036 0.04022,0.76553 0.04022,1.17828 0,1.06539 0.467431,1.16416 0.954264,1.20297 0.995186,0.0776 1.583972,0.06 1.583972,0.37394 0,0.254 -0.182386,0.254 -0.385586,0.254 -0.649464,0 -1.482372,-0.0776 -2.355497,-0.0776 -1.68522,0 -1.969559,0.0776 -2.598914,0.0776 -0.142522,0 -0.365478,-0.0176 -0.365478,-0.21519 0,-0.27517 0.1016,-0.29633 1.482373,-0.41275 0.426155,-0.0388 0.588786,-0.21872 0.588786,-0.5327 l 0.243416,-7.77522 c 0.02046,-0.45155 0.04092,-0.8643 0.04092,-1.00189 0,-1.31939 -0.284339,-1.37936 -0.893586,-1.4358 -1.198033,-0.0988 -1.44145,-0.0988 -1.44145,-0.39511 0,-0.2152 0.304448,-0.35631 0.629356,-0.35631 0.284339,0 0.751416,0.0811 1.421341,0.0811 0.588787,0 0.872773,-0.0811 1.116542,-0.0811 0.44697,0 0.649817,0.29633 0.812447,0.47272 l 7.959019,9.09461 c 0.04092,0.0388 0.06103,0.0988 0.162278,0.0988 0.142522,0 0.122061,-0.21872 0.122061,-0.53269 v -7.85284" />
      <path
         id="path54"
         style="fill:#006260;fill-opacity:1;fill-rule:nonzero;stroke:none;stroke-width:0.03527778"
         d="m 70.443574,232.75366 c 0.04057,0.15875 0.121708,0.35631 0.121708,0.49389 0,0.33514 -0.385586,0.49036 -0.507647,0.51153 -0.730955,0.11642 -1.13665,0.17639 -1.13665,0.41275 0,0.0776 0.08079,0.21519 0.283986,0.21519 0.791634,0 1.502481,-0.0776 2.253897,-0.0776 0.791634,0 1.48202,0.0776 2.355144,0.0776 0.244123,0 0.406048,-0.0388 0.406048,-0.23636 0,-0.2928 -0.385585,-0.23283 -0.934155,-0.39158 -0.263878,-0.0811 -0.669925,-0.33514 -1.055864,-1.41817 l -3.776486,-10.4528 c -0.02046,-0.0776 -0.121709,-0.13759 -0.243417,-0.13759 -0.08149,0 -0.162631,0.0388 -0.2032,0.11995 l -5.177719,11.39472 c -0.101248,0.21872 -0.2032,0.35631 -0.609248,0.49389 -0.507294,0.17639 -1.035402,0.13758 -1.035402,0.39158 0,0.17992 0.08114,0.23636 0.243769,0.23636 0.690033,0 1.482019,-0.0776 2.253544,-0.0776 0.588787,0 1.238956,0.0776 1.78682,0.0776 0.142522,0 0.46743,0 0.46743,-0.23636 0,-0.15522 -0.4064,-0.23283 -1.035755,-0.39158 -0.162631,-0.0388 -0.588786,-0.19756 -0.588786,-0.59267 0,-0.21519 0.954264,-2.93158 1.44145,-3.89466 0.08114,-0.15875 0.406047,-0.23637 1.786819,-0.21873 1.665111,0.0212 1.74625,0.0212 1.908881,0.51153 z m -2.903714,-8.18797 c 0.02046,-0.06 0.06103,-0.0988 0.1016,-0.0988 0.08114,0 0.101247,0.0811 0.121708,0.11994 l 1.076325,3.10798 c 0.06068,0.17991 0.1016,0.27516 0.1016,0.37394 0,0.11994 -1.299633,0.11994 -1.421341,0.11994 -0.162631,0 -1.462264,0 -1.462264,-0.0988 0,-0.11994 0.08149,-0.23636 0.122061,-0.35277 l 1.360311,-3.17148" />
      <path
         id="path56"
         style="fill:#006260;fill-opacity:1;fill-rule:nonzero;stroke:none;stroke-width:0.03527778"
         d="m 82.383337,222.69597 c 0.282223,0 0.567973,0.0212 0.853723,-0.0176 0.709083,-0.11995 0.567973,-0.889 0.931333,-0.889 0.306917,0 0.306917,0.63147 0.306917,1.45697 0,0.90664 -0.02117,1.92969 -0.388057,1.92969 -0.405693,0 -0.342193,-0.8643 -0.606776,-1.25941 -0.123474,-0.17639 -0.913694,-0.55034 -2.945694,-0.55034 -0.81139,0 -0.9525,0.06 -0.9525,1.25942 v 7.93045 c 0,0.9278 0.28222,1.08302 1.15711,1.20297 0.546807,0.0776 1.075973,0.06 1.075973,0.37394 0,0.254 -0.306916,0.254 -0.426863,0.254 -0.610303,0 -1.725083,-0.0776 -2.619726,-0.0776 -0.832557,0 -1.807282,0.0776 -2.863144,0.0776 -0.1016,0 -0.345017,0 -0.345017,-0.19402 0,-0.3175 0.649817,-0.33514 1.157462,-0.43392 0.914049,-0.17639 1.116897,-0.47272 1.116897,-1.63336 v -7.91281 c 0,-0.80786 -0.142172,-0.84667 -1.807282,-0.84667 -1.84785,0 -2.619375,1.94734 -3.04553,1.94734 -0.2032,0 -0.243417,-0.15523 -0.243417,-0.254 0,-0.25753 0.608895,-1.81328 0.832204,-2.40242 0.202845,-0.5327 0.283985,-0.86783 0.568325,-0.86783 0.426508,0 0.06103,0.67027 0.751416,0.76905 1.014942,0.11995 2.010127,0.13758 3.004961,0.13758 h 4.487685" />
      <path
         id="path58"
         style="fill:#006260;fill-opacity:1;fill-rule:nonzero;stroke:none;stroke-width:0.03527778"
         d="m 95.884143,223.99419 c 0,-0.92428 -0.243416,-0.96308 -0.994833,-1.10067 -0.324557,-0.06 -0.687917,0 -0.687917,-0.37394 0,-0.15875 0.183444,-0.25753 0.42686,-0.25753 0.567974,0 1.17475,0.0811 1.74625,0.0811 0.585613,0 1.195917,-0.0811 1.785057,-0.0811 0.28575,0 0.384527,0.14111 0.384527,0.3175 0,0.31397 -0.261054,0.254 -0.670277,0.31397 -0.73025,0.0988 -1.17475,0.15875 -1.17475,1.08303 v 5.74675 c 0,3.21028 -0.93486,4.93889 -5.44336,4.93889 -4.01814,0 -4.547307,-1.68981 -4.547307,-4.62492 0,-2.32127 0.08114,-4.05341 0.08114,-5.76439 0,-0.98425 -0.08114,-1.35819 -0.853723,-1.37936 -0.64911,-0.0212 -1.118307,-0.0212 -1.118307,-0.25752 0,-0.27517 0.123474,-0.37395 0.44803,-0.37395 0.85372,0 1.502833,0.0811 2.356554,0.0811 0.892529,0 1.298223,-0.0811 2.27189,-0.0811 0.123473,0 0.508,0.0811 0.508,0.29633 0,0.33514 -0.243417,0.33514 -0.892527,0.33514 -0.345723,0.0388 -0.772584,0.15875 -0.853723,0.5327 -0.201084,0.88547 -0.201084,5.88433 -0.201084,6.985 0,2.40241 0.892527,3.58422 3.552473,3.58422 2.822221,0 3.877027,-1.30175 3.877027,-4.33211 v -5.66914" />
      <path
         id="path60"
         style="fill:#006260;fill-opacity:1;fill-rule:nonzero;stroke:none;stroke-width:0.03527778"
         d="m 101.26753,232.85244 c 0,0.68792 -0.48683,0.84667 -0.97719,0.90664 -0.486837,0.0776 -0.994837,0.0388 -0.994837,0.37394 -0.02117,0.2152 0.22578,0.254 0.324557,0.254 0.97719,0 1.89089,-0.0776 2.82222,-0.0776 0.75142,0 1.524,0.0776 2.27542,0.0776 0.0811,0 0.52916,-0.0177 0.52916,-0.254 0,-0.27516 -0.44802,-0.29633 -0.81491,-0.37394 -1.41817,-0.27517 -1.41817,-0.43392 -1.41817,-1.41817 v -3.4043 c 0,-0.37395 0,-0.5327 0.60678,-0.5327 0.52917,0 1.07597,0.25753 1.28058,0.59267 l 2.9845,5.09764 c 0.10231,0.17639 0.18345,0.17639 1.82739,0.17639 0.64911,0 0.99483,0.0212 1.84856,0.0212 0.14111,0 0.20108,-0.0811 0.20108,-0.17991 0,-0.2152 -0.40569,-0.23636 -0.9525,-0.35278 -1.016,-0.23636 -1.42169,-0.68792 -1.80975,-1.28058 l -2.39536,-3.81706 c -0.0988,-0.15875 -0.16228,-0.23636 -0.16228,-0.33514 0,-0.29633 2.19428,-1.02305 2.19428,-3.03036 0,-2.44122 -2.04964,-3.03389 -3.73592,-3.03389 -0.91369,0 -1.84855,0.0811 -2.76225,0.0811 -0.6103,0 -2.194274,-0.0811 -2.356553,-0.0811 -0.179917,0 -0.4445,0.0811 -0.4445,0.3175 0,0.27517 0.486833,0.29281 0.709083,0.31397 0.73378,0.06 1.22061,0.15875 1.22061,0.5715 z m 1.74625,-9.38742 c 0,-0.6103 0.50447,-0.6103 0.68792,-0.6103 1.64394,0 3.18911,0.47272 3.18911,2.42005 0,2.46239 -1.56281,2.61761 -2.74108,2.61761 -0.95603,0 -1.13595,-0.0564 -1.13595,-0.23636 v -4.191" />
      <path
         id="path62"
         style="fill:#006260;fill-opacity:1;fill-rule:nonzero;stroke:none;stroke-width:0.03527778"
         d="m 114.03809,223.65905 c 0,-0.508 -0.20461,-0.60678 -0.95603,-0.76553 -0.62795,-0.11994 -0.89253,-0.15875 -0.89253,-0.39511 0,-0.17639 0.28575,-0.23636 0.58914,-0.23636 0.75142,0 2.41653,0.0811 2.92453,0.0811 0.60678,0 3.47133,-0.0811 5.19641,-0.0811 0.30692,0 0.30692,0.21872 0.30692,0.63147 v 1.89089 c 0,0.0776 -0.0811,0.11642 -0.16228,0.11642 -0.26458,0 -0.22577,-0.2152 -0.55033,-0.88547 -0.30339,-0.68792 -0.40569,-1.00189 -3.85586,-1.00189 -0.73378,0 -0.85372,0.254 -0.85372,0.92428 v 3.4043 c 0,0.39511 0.30339,0.43392 1.016,0.43392 h 1.76389 c 1.50283,0 1.03716,-1.69334 1.54516,-1.69334 0.26459,0 0.28222,0.17639 0.28222,0.39512 0,0.45155 -0.0811,0.72672 -0.0811,1.651 0,0.8255 0.0811,1.35819 0.0811,1.90852 0,0.17992 -0.0177,0.33514 -0.22225,0.33514 -0.30338,0 -0.32455,-0.31397 -0.42686,-0.88547 -0.18344,-1.02306 -0.36336,-1.16064 -2.86102,-1.16064 -0.95603,0 -1.09714,0.11642 -1.09714,0.51153 v 3.81705 c 0,0.88548 0.0811,0.98425 2.43769,0.98425 1.37936,0 1.84503,-0.19402 2.27189,-0.66675 0.97367,-1.08302 0.87489,-1.59455 1.22061,-1.59455 0.17992,0 0.20108,0.0988 0.20108,0.19755 0,0.0776 -0.06,0.17639 -0.0811,0.31398 l -0.38453,2.0073 c -0.06,0.31397 -0.18344,0.41275 -0.46919,0.41275 h -5.78556 c -2.25425,0 -2.45533,0.0776 -2.65994,0.0776 -0.16228,0 -0.48683,0 -0.48683,-0.23636 0,-0.2928 0.36336,-0.254 0.87136,-0.39158 0.52916,-0.15875 1.1183,-0.06 1.1183,-0.88547 v -9.21455" />
    </g>
  </g>
</svg>
