<?xml version="1.0" encoding="UTF-8" standalone="no"?>
<svg
   xmlns:dc="http://purl.org/dc/elements/1.1/"
   xmlns:cc="http://creativecommons.org/ns#"
   xmlns:rdf="http://www.w3.org/1999/02/22-rdf-syntax-ns#"
   xmlns:svg="http://www.w3.org/2000/svg"
   xmlns="http://www.w3.org/2000/svg"
   xmlns:sodipodi="http://sodipodi.sourceforge.net/DTD/sodipodi-0.dtd"
   xmlns:inkscape="http://www.inkscape.org/namespaces/inkscape"
   width="332.9483"
   height="322.58432"
   viewBox="-0.952 -0.602 756.90268 1052.8632"
   version="1.1"
   id="svg4"
   sodipodi:docname="logo_ferme.svg"
   inkscape:version="0.92.4 (5da689c313, 2019-01-14)"
   inkscape:export-filename="/home/gueux/src/fermedegouet/static/img/logo_ferme.svg.png"
   inkscape:export-xdpi="144.16652"
   inkscape:export-ydpi="144.16652">
  <metadata
     id="metadata10">
    <rdf:RDF>
      <cc:Work
         rdf:about="">
        <dc:format>image/svg+xml</dc:format>
        <dc:type
           rdf:resource="http://purl.org/dc/dcmitype/StillImage" />
        <dc:title />
      </cc:Work>
    </rdf:RDF>
  </metadata>
  <sodipodi:namedview
     pagecolor="#ffffff"
     bordercolor="#666666"
     borderopacity="1"
     objecttolerance="10"
     gridtolerance="10"
     guidetolerance="10"
     inkscape:pageopacity="0"
     inkscape:pageshadow="2"
     inkscape:window-width="1088"
     inkscape:window-height="751"
     id="namedview6"
     showgrid="false"
     fit-margin-top="0"
     fit-margin-left="0"
     fit-margin-right="0"
     fit-margin-bottom="0"
     inkscape:zoom="1.1639359"
     inkscape:cx="75.37147"
     inkscape:cy="269.94605"
     inkscape:window-x="0"
     inkscape:window-y="13"
     inkscape:window-maximized="0"
     inkscape:current-layer="svg4"
     inkscape:pagecheckerboard="true" />
  <path
     d="m 68.979966,476.58066 c 0.46509,-2.3255 0.46509,-4.8835 0.23254,-7.209 v -8.8368 c 0.23255,-2.7906 0,-5.5811 -0.46509,-8.3717 -1.3953,-7.4415 -2.3255,-14.418 -2.790597,-21.627 -0.46509,-5.116 -0.69764,-10.232 -0.93019,-15.348 l -0.46509,-7.9066 -1.3953,-10.93 -1.3953,-13.953 c -0.23255,-0.93019 -0.23255,-1.8604 -0.23255,-2.558 0,-0.93019 0,-1.8604 0.23255,-2.558 l 1.3953,-13.488 c -1.3953,6.2788 -2.7906,12.558 -3.4882,18.836 l -3.4882,22.79 -0.23255,3.0231 -0.69764,6.5113 -0.4651,4.8835 v 7.4415 l 0.23255,6.5113 -0.69764,11.162 -0.69764,13.953 -0.69765,10.465 0.23255,17.674 0.4651,6.2788 0.46509,5.5811 1.1627,6.9764 c 0,1.3953 -0.23255,3.0231 -0.23255,4.4184 0,1.8604 0.23255,3.9533 0.23255,6.0462 v 0.69764 c 0,1.3953 -0.23255,2.7906 -0.4651,3.9533 -0.93019,2.558 -1.3953,5.116 -1.6278,7.9066 -0.46509,2.7906 -0.69764,5.5811 -1.3953,8.3717 -0.69766,2.7906 -1.1627,5.5811 -1.1627,8.6043 l -0.23255,5.8137 c 0,1.1627 -0.69764,2.3255 -1.6278,2.7906 -1.3953,0.93019 -3.2557,1.6278 -5.116,1.6278 -0.23254,0 -0.46509,0.23254 -0.69764,0.23254 -1.3953,0 -2.558,-0.46509 -3.7208,-0.93019 -2.3255,-0.69764 -3.4882,-2.7906 -3.4882,-5.116 v -11.627 c 0,-5.116 0.4651,-10.232 1.3953,-15.348 0.69764,-4.1858 0.69764,-8.6042 0.23254,-13.023 -0.23254,-1.1627 -0.46509,-2.558 -0.93019,-3.9533 -0.23254,-1.3953 -0.23254,-2.7906 -0.23254,-4.4184 0,-1.1627 0.23254,-2.3255 0.93019,-3.0231 1.3953,-1.8604 2.3255,-3.4882 3.0231,-5.5811 1.1627,-2.558 2.0929,-5.116 2.7906,-7.9066 0.69764,-2.0929 1.1627,-4.4184 0.93019,-6.7439 -0.23255,-3.7208 -0.23255,-7.4415 -0.23255,-11.162 v -0.23254 c 0,-4.8835 -0.46509,-9.767 -1.1627,-14.65 -0.69765,-4.1859 -1.1627,-8.6043 -1.1627,-13.023 v -29.301 l -0.46509,-37.208 0.46509,-16.511 c 0.23255,-2.7906 0.23255,-5.5811 0.46509,-8.3717 0.23255,-9.0694 1.8604,-17.674 4.8835,-26.045 3.0231,-8.1392 7.209,-15.348 13.023,-21.859 5.3486,-5.8137 11.161997,-11.162 17.673997,-15.813 4.1858,-3.0231 8.6042,-5.5811 13.255,-7.4415 6.7439,-2.7906 13.953004,-5.3486 21.162004,-7.209 4.8835,-1.3953 9.767,-2.0929 14.883,-2.3255 3.4882,-0.23255 7.9066,-0.23255 12.092,-0.46509 h 4.8835 c 6.9764,0 13.72,0.46509 20.464,1.6278 3.2557,0.69764 6.2788,1.1627 9.5344,1.6278 4.651,0.69764 9.0694,1.1627 13.488,1.6278 10.93,1.1627 22.092,2.0929 33.254,2.7906 19.534,0.93019 40.928,2.7906 62.555,4.8835 9.0694,1.1627 16.511,1.8604 23.952,2.3255 1.8604,0.23255 5.116,0.4651 8.1392,0.69764 3.4882,0.23255 6.0462,0.23255 8.6043,-0.23255 2.0929,-0.23255 4.1858,-0.4651 6.5113,-0.69764 7.9066,-1.1627 15.581,-1.6278 23.255,-1.6278 20.464,0 41.161,-1.3953 61.625,-4.4184 22.557,-3.2557 44.649,-5.116 67.206,-5.116 h 2.0929 c 5.8137,0 11.627,0 17.209,0.46509 6.0462,0.4651 12.558,1.1627 19.069,1.8604 5.8137,0.69764 12.092,1.1627 18.604,1.6278 8.1392,0.69764 15.581,0.93019 23.022,0.69764 5.3486,-0.23255 10.697,-0.69764 16.278,-1.1627 6.0462,-0.46509 12.092,-1.6278 18.139,-3.2557 7.209,-1.8604 14.418,-4.1859 21.394,-7.209 2.7906,-0.93019 5.3486,-2.3255 7.9066,-3.7208 l 4.1858,-2.558 -1.8604,-4.4184 c -0.69764,-0.69764 -0.93019,-1.6278 -0.93019,-2.7906 v -0.69764 c 0.4651,-1.8604 1.3953,-3.2557 3.2557,-3.9533 2.0929,-0.69764 4.4184,-1.6278 6.9764,-2.3255 1.6278,-0.69764 3.4882,-1.3953 5.116,-2.0929 2.3255,-1.1627 4.8835,-2.0929 7.4415,-2.558 2.558,-0.4651 4.8835,-1.8604 6.5113,-3.9533 l 9.3019,-11.395 c 0.46509,-0.46509 0.93019,-0.69764 1.3953,-0.93019 h 0.69764 c 0.69764,0 1.1627,0.46509 1.6278,1.1627 0.23255,0.69764 0.23255,1.3953 0.23255,2.0929 0,0.6976 0,1.3953 -0.23255,1.8604 l -1.1627,2.7906 -2.3255,6.2788 -2.7906,7.4415 h 0.23255 c 3.9533,0.23255 7.4415,1.1627 10.697,2.7906 1.6278,0.93019 4.1858,2.3255 6.5113,3.7208 3.2557,1.6278 5.116,3.2557 6.7439,5.3486 0.69764,0.69764 1.3953,1.3953 2.3255,1.8604 1.1627,0.69764 2.558,0.93019 3.9533,0.4651 2.0929,-0.4651 4.1858,-1.8604 5.5811,-3.7208 l 10.232,-13.255 c 0.69764,-0.69764 1.3953,-1.1627 2.3255,-1.1627 0.23255,-0.23255 0.46509,-0.23255 0.46509,-0.23255 0.93019,0 1.6278,0.46509 2.0929,1.1627 0.46509,0.93019 0.69764,1.8604 0.69764,2.7906 0,0.46509 0,1.1627 -0.23255,1.8604 l -1.6278,3.7208 -3.0231,7.4415 -2.3255,4.651 -2.558,3.4882 -1.8604,2.7906 -3.9533,6.7439 c -0.23255,0.46509 -0.46509,0.93019 -0.46509,1.3953 0,0.69764 0.23255,1.1627 0.69764,1.6278 1.6278,2.0929 3.4882,4.1858 5.5811,6.2788 1.6278,1.6278 3.7208,2.7906 5.8137,3.2557 2.558,0.69764 4.651,2.7906 5.3486,5.3486 0.69764,2.3255 1.3953,4.8835 1.6278,7.209 0.46509,3.9533 2.3255,7.4415 4.8835,10.232 2.0929,1.8604 3.7208,3.9533 5.116,6.2788 2.3255,3.4882 4.651,6.9764 7.4415,10.232 2.0929,2.558 3.7208,5.5811 5.116,8.3717 1.3953,3.4882 3.2557,6.7439 5.8137,9.3019 l 14.65,15.813 c 0.23254,1.1627 0.46509,2.3255 0.46509,3.4882 0,0.93019 0,1.6278 -0.23255,2.3255 -0.46509,3.2557 -1.3953,6.5113 -2.3255,9.5344 -0.93019,2.558 -2.3255,4.651 -3.9533,6.7439 -1.6278,1.8604 -3.2557,3.7208 -5.3486,5.3486 -2.0929,1.6278 -4.651,3.0231 -7.209,3.9533 -1.1627,0.23255 -2.3255,0.4651 -3.4882,0.4651 -1.8604,0 -3.7208,-0.4651 -5.3486,-1.3953 -1.6278,-0.9302 -3.2557,-1.3953 -5.116,-1.8604 -2.558,-0.69764 -5.3486,-0.69764 -8.1392,-0.23255 -3.9533,0.69765 -7.4415,1.3953 -10.697,2.0929 1.1627,-0.23255 -0.69764,-0.23255 -2.558,-0.23255 -1.86036,0 -3.9533,-0.23254 -6.0462,-0.46509 -3.4882,-0.93019 -6.9764,-1.6278 -10.232,-2.0929 -1.8604,-0.46509 -4.8835,-1.3953 -7.6741,-2.558 -2.0929,-0.93019 -4.4184,-0.93019 -6.7439,-0.23255 -2.558,0.93019 -5.116,2.0929 -7.6741,3.4882 -5.8137,3.2557 -12.092,5.3486 -18.604,6.5113 -2.3255,0.4651 -4.651,0.93019 -6.7439,1.3953 -3.0231,0.46509 -6.7439,0.93019 -10.232,0.93019 -2.558,0.23254 -5.116,0.69764 -7.6741,1.8604 -4.651,2.3255 -8.8368,5.8137 -11.86,10.232 -3.9533,5.8137 -7.4415,11.86 -10.465,18.371 -2.3255,4.8835 -5.116,9.9995 -7.9066,14.883 -2.0929,3.4882 -3.9533,7.6741 -5.5811,11.86 -2.3255,5.8137 -4.651,10.93 -7.209,16.278 -1.6278,3.7208 -3.2557,7.4415 -4.651,11.395 -0.4651,1.1627 -1.1627,2.3255 -1.8604,3.2557 -6.5113,8.8368 -15.348,15.348 -25.58,18.604 l -6.2788,2.0929 6.5113,5.8137 13.255,11.86 6.9764,6.7439 5.5811,6.0462 c 1.6278,2.558 3.2557,5.3486 5.3486,7.9066 1.6278,2.558 3.0231,4.651 3.9533,6.9764 0.93019,2.0929 1.3953,4.1859 1.3953,6.5113 0,0.93019 -0.23255,1.8604 -0.23255,2.7906 -0.69764,3.4882 -2.0929,6.7439 -3.7208,9.767 l -3.4882,5.8137 -4.1858,5.5811 -12.558,11.86 -5.5811,5.5811 -5.116,5.3486 -2.7906,3.4882 -8.3717,10.465 -14.65,15.581 -7.6741,7.209 -6.0462,4.651 -4.8835,3.2557 -3.4882,1.6278 -1.8604,0.23255 c -2.0929,5.3486 -5.5811,10.232 -9.767,13.953 -1.6278,1.6278 -3.7208,2.7906 -6.0462,3.2557 -2.0929,0.4651 -3.9533,0.93019 -6.0462,1.3953 h -1.3953 c -0.93019,0 -1.6278,0 -2.558,-0.23255 l -1.3953,-0.4651 10.93,-37.44 c 0.46509,-1.3953 1.3953,-2.558 3.0231,-2.7906 l 9.9995,-2.3255 c 0.93019,-0.4651 1.3953,-1.3953 1.1627,-2.0929 l -2.0929,-6.2788 c -0.23254,-0.46509 -0.46509,-1.3953 -0.46509,-2.0929 0,-2.0929 1.1627,-3.9533 3.0231,-4.8835 1.6278,-0.93019 3.4882,-1.6278 5.3486,-2.3255 2.558,-0.46509 4.8835,-1.8604 6.9764,-3.2557 2.7906,-2.0929 5.5811,-4.1859 8.3717,-6.5113 3.7208,-3.0231 6.9764,-6.9764 9.3019,-11.162 2.0929,-3.9533 4.1858,-7.9066 6.5113,-11.627 2.0929,-3.7208 3.0231,-6.9764 3.4882,-10.465 0.46509,-3.7208 -0.4651,-7.4415 -2.7906,-10.697 -2.3255,-3.2555 -5.5811,-6.0462 -9.0694,-7.6741 l -13.255,-6.2788 c -3.9533,-1.8604 -7.9066,-3.7208 -12.092,-5.3486 -3.9533,-1.3953 -7.4415,-3.4882 -10.93,-5.8137 -2.3255,-1.8604 -4.6509,-3.2557 -7.209,-4.651 -5.116,-3.2557 -9.0694,-7.4415 -12.092,-12.79 l -1.3953,-2.558 -5.8137,11.86 -2.3255,5.116 -1.8604,3.9533 -3.7208,5.3486 -4.651,6.7439 -6.9764,9.9995 -5.8137,9.3019 -6.2788,10.232 -3.0231,4.8835 -8.8368,15.581 -3.4882,6.7439 -4.4184,8.8368 -2.3255,5.3486 -1.6278,4.8835 c -1.1627,2.558 -1.8604,5.116 -2.3255,7.9066 -0.23255,2.0929 -0.69765,4.1858 -1.1627,6.5113 0,0.93019 -0.23255,1.8604 -0.23255,2.7906 0,3.2557 1.1627,6.2788 3.4882,8.6043 l 7.4415,8.3717 1.1627,1.8604 c 7.209,1.8604 12.558,7.9066 13.72,15.348 l 0.23255,1.6278 h -39.766 c -3.2557,-3.4882 -5.116,-7.9066 -5.116,-12.558 0,-2.7906 0.69764,-5.5811 1.8604,-8.1392 l 1.1627,-2.0929 c 0.23255,-0.93019 -0.23254,-1.6278 -0.93019,-1.6278 h -4.6509 c -3.0231,-0.46509 -4.8835,-3.0231 -4.8835,-5.8137 0,-0.46509 0,-0.69764 0.23255,-1.1627 l 1.8604,-9.3019 3.2557,-11.395 3.7208,-13.72 3.7208,-12.79 2.3255,-9.3019 2.0929,-8.6043 1.3953,-5.5811 1.3953,-5.5811 0.93019,-5.116 1.1627,-5.3486 0.93019,-3.9533 2.558,-9.767 c 1.3953,-4.4184 3.0231,-9.0694 4.1858,-13.488 1.8604,-6.7439 4.4184,-13.488 7.6741,-19.534 l 2.0929,-3.9533 -18.139,-0.4651 h -3.9533 c -5.116,0 -10.697,0 -16.046,-0.46509 -8.6042,-0.4651 -17.674,0.23255 -26.51,2.3255 -12.558,2.558 -25.115,3.9533 -37.905,4.1859 -1.3953,0.23254 -2.558,0.23254 -3.9533,0.23254 -13.953,0 -27.673,-1.3953 -41.161,-4.1858 -9.5344,-1.8604 -16.511,-3.2557 -23.487,-4.651 l -1.3953,-0.23255 c -5.116,4.1859 -10.7,7.9066 -16.743,10.697 l -0.69764,0.46509 3.2557,18.371 c -0.23255,3.7208 -3.2557,6.7439 -6.9764,6.7439 -3.0231,0 -5.8137,-1.6278 -6.7439,-4.4184 l -5.8137,-15.348 -8.6043,1.8604 2.0929,15.116 v 1.3953 c 0,1.3953 -0.23255,2.7906 -0.93019,3.9533 -1.1627,1.8604 -2.7906,2.7906 -4.8835,3.0231 h -0.93019 c -1.3953,0 -2.7906,-0.23255 -4.1858,-0.4651 -1.8604,-0.46509 -3.4882,-1.8604 -3.7208,-3.9533 l -3.2557,-16.976 -7.9066,0.46509 c -0.4651,3.0231 -0.69764,6.2788 -0.69764,9.5344 v 1.3953 c 0,4.6509 0.46509,9.0694 0.93019,13.72 0.46509,3.9533 1.3953,7.6741 2.7906,11.162 3.2557,7.4415 6.9764,15.116 11.162,22.325 l 2.7906,4.8835 5.116,9.0694 c 2.0929,4.8835 5.116,9.3019 8.6042,13.255 l 2.7906,3.2557 3.2557,3.2557 8.3717,6.9764 6.5113,5.5811 8.1392,6.7439 c 0.93019,0.69764 1.8604,1.6278 2.7906,2.3255 5.3486,4.8835 9.5344,10.93 12.325,17.441 l 0.69764,2.0929 c 3.4882,1.3953 6.7439,3.2557 9.5344,5.3486 3.4882,3.0231 6.2788,6.5113 8.1392,10.697 l 0.93019,2.0929 h -39.533 l -0.93019,-0.23254 -11.395,-21.162 c -0.23255,-0.69765 -0.93019,-1.1627 -1.6278,-1.1627 -0.46509,0 -0.93019,0.23255 -1.1627,0.46509 l -3.0231,2.558 c -0.4651,0.46509 -1.1627,0.93019 -1.6278,0.93019 -0.4651,0 -0.69764,-0.23255 -0.93019,-0.23255 -1.1627,-0.69764 -2.3255,-1.3953 -3.2557,-2.3255 l -1.1627,-1.3953 -4.4184,-5.116 -3.4882,-4.651 -12.558,-21.162 c -1.8604,-2.7906 -3.4882,-5.116 -5.116,-7.4415 -1.6278,-2.3255 -4.1859,-5.116 -7.209,-7.4415 l -6.5113,-4.8835 -24.65,-18.371 c -0.93019,-1.1627 -1.8604,-2.558 -2.0929,-4.1859 l -6.9764,-30.231 -1.3953,-5.3486 -3.2557,-7.9066 -3.4882,-6.0462 -2.7906,-2.7906 c -3.7208,7.209 -8.60431,13.953 -13.953,19.767 -3.2557,3.4882 -6.2788,6.5113 -9.3019,9.5344 -3.7208,3.9533 -6.976404,8.1392 -9.534404,13.023 -5.116,9.767 -8.8368,20.697 -10.93,31.626 -1.1627,6.0462 -2.0929,12.092 -3.2557,18.139 -0.23255,2.3255 -0.4651,5.116 -0.4651,7.9066 0,2.7906 0.23255,5.5811 0.69765,8.3717 0.23254,1.8604 0.93019,3.4882 2.0929,4.8835 1.16271,1.3953 2.3255,3.0231 3.2557,4.651 0.69764,1.1627 0.93019,2.558 1.1627,4.1859 l 0.23254,4.4184 4.4184,4.651 4.6509,4.1858 c 1.6278,2.3255 2.558,4.651 3.0231,7.209 l 0.930194,5.3486 H 61.071279 l -3.7208,-6.2788 c -0.93019,-1.3953 -1.1627,-3.0231 -1.1627,-4.651 0,-0.69764 0,-1.6278 0.23254,-2.3255 0.23255,-1.3953 0.93019,-3.0231 1.8604,-4.4184 0.4651,-0.93019 0.93019,-2.0929 1.3953,-3.2557 0.46509,-1.3953 0.69764,-2.7906 0.93019,-4.1858 0,-0.93019 -0.23255,-1.8604 -0.69764,-2.558 -0.69765,-0.93019 -1.6278,-1.3953 -2.558,-1.6278 l -4.4184,-0.93019 c -0.69764,0 -1.1627,-0.4651 -1.6278,-0.93019 -0.93019,-1.1627 -1.3953,-2.558 -1.3953,-3.9533 0,-0.93019 0.23254,-1.8604 0.46509,-2.558 0.4651,-0.93019 0.69764,-1.8604 0.93019,-2.7906 1.1627,-8.6043 2.7906,-17.906 4.651,-26.976 l 1.3953,-7.6741 2.558,-19.069 c 0.46509,-2.558 1.1627,-5.5811 1.3953,-8.6043 0.4651,-3.2557 0.4651,-6.2788 -0.23255,-9.3019 -1.1627,-5.5811 -2.0929,-11.395 -2.7906,-17.209 -0.69764,-5.3486 -1.3953,-10.465 -2.0929,-15.581 -0.23255,-1.3953 -0.23255,-2.7906 -0.23255,-4.4184 v -3.7208 c 0.46509,-3.9533 1.8604,-7.6741 3.9533,-10.697 0.93019,-1.6278 1.8604,-3.2557 2.558,-5.116 l 2.558,-7.4415 c 0.23255,-0.93019 0.69764,-1.6278 0.93019,-2.3255 1.627797,-5.3486 2.790597,-10.697 3.023097,-16.046 z"
     id="path2"
     inkscape:connector-curvature="0" />
  <path
     inkscape:connector-curvature="0"
     id="path14"
     style="font-style:normal;font-variant:normal;font-weight:normal;font-stretch:normal;font-size:70.75547791px;line-height:125%;font-family:'EB Garamond SC';-inkscape-font-specification:'EB Garamond SC, Normal';font-variant-ligatures:normal;font-variant-position:normal;font-variant-caps:normal;font-variant-numeric:normal;font-feature-settings:normal;text-align:center;letter-spacing:0px;word-spacing:0px;writing-mode:lr-tb;text-anchor:middle;fill:#000000;fill-opacity:1;stroke:none;stroke-width:4.85263538px;stroke-linecap:butt;stroke-linejoin:miter;stroke-opacity:1"
     d="m -44.567174,767.28797 c 0.415951,0 3.921825,-0.50551 6.71464,-0.50551 2.852237,0 6.774062,0.50551 7.190013,0.50551 0.653638,-0.0843 1.901491,-0.58976 1.901491,-1.43227 0,-1.26377 -1.960913,-1.68502 -3.268187,-2.52754 -2.020335,-1.26376 -2.792816,-3.95981 -2.792816,-7.16134 l -0.05942,-10.5314 c 0,-1.60077 0.297108,-2.02203 1.426118,-2.02203 h 5.763895 c 1.247854,0 1.663804,0.84252 2.079755,1.76928 0.35653,0.84251 1.129011,3.20154 1.901492,3.20154 0.594215,0 0.77248,-1.34801 0.77248,-2.19053 0,-0.92676 -0.05943,-3.53855 -0.05943,-4.80231 0,-1.26377 0.237687,-4.21256 0.237687,-4.88657 0,-1.01101 -0.118844,-1.68503 -0.653638,-1.68503 -0.653637,0 -1.188432,1.26377 -1.842069,2.10629 -1.069589,1.43226 -1.723227,2.35902 -3.624717,2.35902 h -4.634884 c -0.831903,0 -1.366697,-0.58976 -1.366697,-2.61178 l 0.05942,-13.90144 c 0,-1.09526 0.237686,-1.76928 1.842069,-1.76928 h 6.595797 c 2.852237,0 4.337777,1.34802 4.81315,2.78029 0.534794,1.68502 1.426117,3.20155 2.139177,3.20155 0.713059,0 0.950746,-1.17951 0.950746,-2.19053 0,-0.92676 -0.297109,-5.56057 -0.534795,-6.9086 -0.118844,-0.75826 -0.594216,-1.17952 -1.544961,-1.17952 -1.069589,0 -4.575463,0.42126 -7.07117,0.42126 h -16.578624 c -1.247854,0 -2.079756,0.50551 -2.079756,1.51653 0,0.75826 0.415951,1.17952 0.950745,1.43226 3.387031,1.34802 4.872571,1.43228 4.872571,6.23459 v 29.74065 c 0,3.11729 -0.772481,5.81334 -2.792815,7.0771 -1.307275,0.84252 -3.268188,1.26377 -3.268188,2.52754 0,0.84251 1.307276,1.34801 1.960913,1.43227 z" />
  <path
     inkscape:connector-curvature="0"
     id="path16"
     style="font-style:normal;font-variant:normal;font-weight:normal;font-stretch:normal;font-size:70.75547791px;line-height:125%;font-family:'EB Garamond SC';-inkscape-font-specification:'EB Garamond SC, Normal';font-variant-ligatures:normal;font-variant-position:normal;font-variant-caps:normal;font-variant-numeric:normal;font-feature-settings:normal;text-align:center;letter-spacing:0px;word-spacing:0px;writing-mode:lr-tb;text-anchor:middle;fill:#000000;fill-opacity:1;stroke:none;stroke-width:4.85263538px;stroke-linecap:butt;stroke-linejoin:miter;stroke-opacity:1"
     d="m -5.8075833,737.12606 v -14.1542 c 0,-1.09526 0.2376864,-1.76928 1.8420694,-1.76928 h 7.0711696 c 2.8522364,0 4.3377762,1.34802 4.813149,2.78029 0.5347939,1.68502 1.4261185,3.20155 2.1391773,3.20155 0.713059,0 0.950745,-1.17951 0.950745,-2.19053 0,-0.92676 -0.297107,-5.56057 -0.534794,-6.9086 -0.118843,-0.75826 -0.5942157,-1.17952 -1.5449615,-1.17952 -1.0695884,0 -4.5754624,0.42126 -7.0711693,0.42126 H -15.196195 c -1.247854,0 -2.079755,0.50551 -2.079755,1.51653 0,0.75826 0.41595,1.17952 0.950745,1.43226 3.38703,1.34802 4.87257,1.43228 4.87257,6.23459 v 29.74065 c 0,3.11729 -0.772481,5.81334 -2.792814,7.0771 -1.307276,0.84252 -3.268188,1.26377 -3.268188,2.52754 0,0.84251 1.307275,1.34801 1.960912,1.43227 0.415952,0 3.921826,-0.42126 6.7146401,-0.42126 6.2986892,0 17.0539976,0.42126 19.2525959,0.42126 1.010167,0 1.129011,-0.337 1.604383,-1.60077 0.475373,-1.09527 2.258021,-7.32985 2.258021,-9.68888 0,-1.26378 -0.237687,-2.10628 -0.831902,-2.10628 -0.534795,0 -1.307275,0.674 -1.604383,1.60076 -1.723226,5.13933 -2.4957068,7.83536 -7.0711698,7.83536 h -6.4769536 c -2.8522365,0 -4.1000899,-3.62279 -4.1000899,-8.00386 v -9.43612 c 0,-1.60078 0.297108,-2.02203 1.4261182,-2.02203 h 6.2392673 c 1.2478535,0 1.6638046,0.84251 2.0797558,1.76927 0.3565295,0.84252 1.1290102,3.20154 1.9014909,3.20154 0.5942159,0 0.7724808,-1.34802 0.7724808,-2.19052 0,-0.92676 -0.059421,-3.53855 -0.059421,-4.80232 0,-1.26377 0.2376863,-4.21256 0.2376863,-4.88656 0,-1.01102 -0.1188432,-1.68503 -0.6536375,-1.68503 -0.6536375,0 -1.1884318,1.26377 -1.8420694,2.10628 -1.0695887,1.43227 -1.7232262,2.35903 -3.62471717,2.35903 H -4.4408867 c -0.8319023,0 -1.3666966,-0.58976 -1.3666966,-2.61178 z" />
  <path
     inkscape:connector-curvature="0"
     id="path18"
     style="font-style:normal;font-variant:normal;font-weight:normal;font-stretch:normal;font-size:70.75547791px;line-height:125%;font-family:'EB Garamond SC';-inkscape-font-specification:'EB Garamond SC, Normal';font-variant-ligatures:normal;font-variant-position:normal;font-variant-caps:normal;font-variant-numeric:normal;font-feature-settings:normal;text-align:center;letter-spacing:0px;word-spacing:0px;writing-mode:lr-tb;text-anchor:middle;fill:#000000;fill-opacity:1;stroke:none;stroke-width:4.85263538px;stroke-linecap:butt;stroke-linejoin:miter;stroke-opacity:1"
     d="m 39.968394,746.39368 c -0.77248,-1.60077 -1.48554,-3.45429 -1.48554,-4.21255 0,-0.75826 0.237687,-0.67402 1.010167,-1.51653 2.792816,-2.86454 4.694306,-6.40309 4.694306,-11.79516 0,-8.50936 -6.655218,-12.04791 -12.656799,-12.04791 -5.288522,0 -7.724807,0.25275 -12.953907,0.84251 -1.247854,0.0843 -2.079756,0.50551 -2.079756,1.51652 0,0.75826 0.415951,1.17952 0.950746,1.43228 3.38703,1.348 4.87257,1.43226 4.87257,6.23457 v 29.40365 c 0,3.11729 -0.772481,5.81334 -2.792815,7.0771 -1.307275,0.84252 -3.268188,1.26377 -3.268188,2.52754 0,0.84251 1.307276,1.34801 1.960913,1.43227 0.415952,0 3.981247,-0.50551 6.536376,-0.50551 2.852236,0 6.774061,0.50551 7.190013,0.50551 0.653637,-0.0843 1.90149,-0.58976 1.90149,-1.43227 0,-1.26377 -1.960912,-1.68502 -3.268187,-2.52754 -2.020335,-1.26376 -2.792815,-3.95981 -2.792815,-7.0771 v -7.16134 c 0,-1.85352 0.41595,-4.21256 1.663804,-4.21256 2.495708,0 4.218933,1.09526 4.931992,2.78028 3.089923,7.32986 5.882738,12.30067 9.388612,17.52425 1.663805,2.52754 4.634884,3.9598 7.546542,3.9598 2.079756,0 4.159512,-1.01102 4.159512,-2.52753 0,-0.67401 -0.35653,-1.34802 -1.010167,-1.43227 -1.307275,-0.16851 -2.673972,-0.58976 -3.387031,-1.34801 -4.456619,-4.54957 -8.20018,-11.28967 -11.111838,-17.44 z m -11.58721,-5.89758 c -0.237687,-0.50551 -0.594216,-1.51652 -0.594216,-3.70705 v -13.39593 c 0,-1.60078 1.307275,-2.86454 2.971079,-2.86454 3.981247,0 7.487121,3.95981 7.487121,9.60462 0,4.38107 -1.307275,7.24561 -3.624717,10.0259 -0.534794,0.84251 -2.61455,1.68502 -4.397198,1.68502 -0.653638,0 -1.366696,-0.42125 -1.842069,-1.34802 z" />
  <path
     inkscape:connector-curvature="0"
     id="path20"
     style="font-style:normal;font-variant:normal;font-weight:normal;font-stretch:normal;font-size:70.75547791px;line-height:125%;font-family:'EB Garamond SC';-inkscape-font-specification:'EB Garamond SC, Normal';font-variant-ligatures:normal;font-variant-position:normal;font-variant-caps:normal;font-variant-numeric:normal;font-feature-settings:normal;text-align:center;letter-spacing:0px;word-spacing:0px;writing-mode:lr-tb;text-anchor:middle;fill:#000000;fill-opacity:1;stroke:none;stroke-width:4.85263538px;stroke-linecap:butt;stroke-linejoin:miter;stroke-opacity:1"
     d="m 95.966749,756.25106 -1.010165,-27.80288 c -0.178259,-4.80231 0.475378,-6.48734 2.317448,-7.5826 2.376856,-1.43226 2.852238,-1.68502 2.852238,-2.52753 0,-0.84252 -0.237689,-1.43228 -0.950752,-1.43228 -1.901486,0 -6.001578,0.84252 -7.546537,0.84252 -1.544968,0 -2.376865,0 -3.030502,1.93777 l -8.378448,24.68559 c -0.594217,1.85353 -1.247854,2.86455 -1.723227,2.86455 -0.297107,0 -1.307274,-0.84252 -1.48554,-1.43228 L 70.47489,723.05611 c -1.129011,-3.7913 -2.139178,-5.30782 -3.743561,-5.30782 -2.733393,0 -4.456619,-0.42126 -6.595796,-0.42126 -0.71306,0 -2.020335,-0.0842 -2.020335,1.17952 0,1.34802 2.139178,2.61179 3.208766,4.04405 1.48554,1.93779 2.436286,3.53855 1.901492,9.52039 l -2.020335,22.41081 c -0.415951,4.21255 -1.426118,7.5826 -3.446452,8.84636 -1.366697,0.84252 -3.268188,1.26377 -3.268188,2.52754 0,0.84251 1.307275,1.34801 1.960913,1.43227 0.41595,0 2.673972,-0.50551 5.466786,-0.50551 2.852237,0 5.466787,0.50551 5.882738,0.50551 0.653638,-0.0843 1.901491,-0.58976 1.901491,-1.43227 0,-1.26377 -1.960913,-1.68502 -3.268188,-2.52754 -1.544961,-1.01101 -1.960912,-5.13931 -1.842069,-7.4141 l 0.772481,-17.9455 c 0.297107,-6.74008 0.594216,-5.89757 1.069588,-5.89757 0.475373,0 1.010168,1.43226 2.079756,5.39207 l 5.882737,21.39979 c 1.247854,4.54957 1.723227,5.22357 2.317443,5.22357 0.534794,0 3.030501,-7.2456 3.268187,-8.00386 l 5.407366,-17.60848 c 1.901494,-6.7401 2.733391,-6.65585 3.268186,-6.65585 0.534795,0 1.010165,3.87556 1.188432,8.17236 l 0.47537,16.26047 c 0.118851,3.11729 -0.77248,5.81334 -2.792809,7.0771 -1.307274,0.84252 -3.268186,1.26377 -3.268186,2.52754 0,0.84251 1.307274,1.34801 1.960912,1.43227 0.415944,0 3.921823,-0.50551 6.71464,-0.50551 2.852234,0 6.774058,0.50551 7.190015,0.50551 0.65363,-0.0843 1.90148,-0.58976 1.90148,-1.43227 0,-1.26377 -1.96091,-1.68502 -3.268184,-2.52754 -2.020329,-1.26376 -2.673966,-3.95981 -2.792817,-7.0771 z" />
  <path
     inkscape:connector-curvature="0"
     id="path22"
     style="font-style:normal;font-variant:normal;font-weight:normal;font-stretch:normal;font-size:70.75547791px;line-height:125%;font-family:'EB Garamond SC';-inkscape-font-specification:'EB Garamond SC, Normal';font-variant-ligatures:normal;font-variant-position:normal;font-variant-caps:normal;font-variant-numeric:normal;font-feature-settings:normal;text-align:center;letter-spacing:0px;word-spacing:0px;writing-mode:lr-tb;text-anchor:middle;fill:#000000;fill-opacity:1;stroke:none;stroke-width:4.85263538px;stroke-linecap:butt;stroke-linejoin:miter;stroke-opacity:1"
     d="m 114.89252,737.12606 v -14.1542 c 0,-1.09526 0.23769,-1.76928 1.84207,-1.76928 h 7.07117 c 2.85224,0 4.33778,1.34802 4.81315,2.78029 0.53479,1.68502 1.42612,3.20155 2.13918,3.20155 0.71305,0 0.95074,-1.17951 0.95074,-2.19053 0,-0.92676 -0.2971,-5.56057 -0.53479,-6.9086 -0.11885,-0.75826 -0.59422,-1.17952 -1.54497,-1.17952 -1.06959,0 -4.57546,0.42126 -7.07116,0.42126 h -17.054 c -1.24786,0 -2.07975,0.50551 -2.07975,1.51653 0,0.75826 0.41595,1.17952 0.95074,1.43226 3.38703,1.34802 4.87257,1.43228 4.87257,6.23459 v 29.74065 c 0,3.11729 -0.77248,5.81334 -2.79281,7.0771 -1.30728,0.84252 -3.2682,1.26377 -3.2682,2.52754 0,0.84251 1.30729,1.34801 1.96092,1.43227 0.41595,0 3.92183,-0.42126 6.71464,-0.42126 6.29869,0 17.054,0.42126 19.2526,0.42126 1.01016,0 1.129,-0.337 1.60438,-1.60077 0.47537,-1.09527 2.25802,-7.32985 2.25802,-9.68888 0,-1.26378 -0.23769,-2.10628 -0.8319,-2.10628 -0.5348,0 -1.30728,0.674 -1.60439,1.60076 -1.72322,5.13933 -2.4957,7.83536 -7.07116,7.83536 h -6.47696 c -2.85223,0 -4.10009,-3.62279 -4.10009,-8.00386 v -9.43612 c 0,-1.60078 0.29711,-2.02203 1.42612,-2.02203 h 6.23927 c 1.24785,0 1.6638,0.84251 2.07975,1.76927 0.35654,0.84252 1.12902,3.20154 1.9015,3.20154 0.59421,0 0.77248,-1.34802 0.77248,-2.19052 0,-0.92676 -0.0595,-3.53855 -0.0595,-4.80232 0,-1.26377 0.23769,-4.21256 0.23769,-4.88656 0,-1.01102 -0.11885,-1.68503 -0.65364,-1.68503 -0.65364,0 -1.18843,1.26377 -1.84207,2.10628 -1.06959,1.43227 -1.72322,2.35903 -3.62472,2.35903 h -5.11026 c -0.8319,0 -1.3667,-0.58976 -1.3667,-2.61178 z" />
  <path
     inkscape:connector-curvature="0"
     id="path24"
     style="font-style:normal;font-variant:normal;font-weight:normal;font-stretch:normal;font-size:70.75547791px;line-height:125%;font-family:'EB Garamond SC';-inkscape-font-specification:'EB Garamond SC, Normal';font-variant-ligatures:normal;font-variant-position:normal;font-variant-caps:normal;font-variant-numeric:normal;font-feature-settings:normal;text-align:center;letter-spacing:0px;word-spacing:0px;writing-mode:lr-tb;text-anchor:middle;fill:#000000;fill-opacity:1;stroke:none;stroke-width:4.85263538px;stroke-linecap:butt;stroke-linejoin:miter;stroke-opacity:1"
     d="m 160.96748,723.22461 c 0,-1.85353 2.61455,-2.69603 5.16967,-2.69603 8.43787,0 15.15251,9.09912 15.15251,21.39979 0,10.6999 -3.74356,21.98955 -10.81473,21.98955 -5.2291,0 -9.50745,-1.93778 -9.50745,-10.8684 z m 7.13059,-6.48734 c -3.68414,0 -8.08134,0.67402 -11.76548,0.67402 -1.78264,0 -2.91166,-0.0843 -4.75373,-0.0843 -1.24785,0 -2.07975,0.5055 -2.07975,1.51652 0,0.75826 0.41595,1.17952 0.95075,1.43226 3.38702,1.43228 4.87257,1.43228 4.87257,6.23459 v 29.74066 c 0,3.11729 -0.83191,5.81333 -2.79282,7.07709 -1.30728,0.84252 -3.26819,1.26377 -3.26819,2.52754 0,0.92677 1.30728,1.34801 1.96091,1.43227 0.41596,0 3.92183,-0.5055 6.65522,-0.5055 2.7334,0 5.88274,0.92676 11.5278,0.92676 12.77563,0 18.53953,-12.89043 18.53953,-27.46588 0,-14.3227 -9.86398,-23.50607 -19.84681,-23.50607 z" />
  <path
     inkscape:connector-curvature="0"
     id="path26"
     style="font-style:normal;font-variant:normal;font-weight:normal;font-stretch:normal;font-size:70.75547791px;line-height:125%;font-family:'EB Garamond SC';-inkscape-font-specification:'EB Garamond SC, Normal';font-variant-ligatures:normal;font-variant-position:normal;font-variant-caps:normal;font-variant-numeric:normal;font-feature-settings:normal;text-align:center;letter-spacing:0px;word-spacing:0px;writing-mode:lr-tb;text-anchor:middle;fill:#000000;fill-opacity:1;stroke:none;stroke-width:4.85263538px;stroke-linecap:butt;stroke-linejoin:miter;stroke-opacity:1"
     d="m 203.56069,737.12606 v -14.1542 c 0,-1.09526 0.23768,-1.76928 1.84206,-1.76928 h 7.07117 c 2.85224,0 4.33778,1.34802 4.81315,2.78029 0.53479,1.68502 1.42612,3.20155 2.13918,3.20155 0.71306,0 0.95075,-1.17951 0.95075,-2.19053 0,-0.92676 -0.29711,-5.56057 -0.5348,-6.9086 -0.11884,-0.75826 -0.59422,-1.17952 -1.54496,-1.17952 -1.06959,0 -4.57546,0.42126 -7.07117,0.42126 h -17.054 c -1.24785,0 -2.07975,0.50551 -2.07975,1.51653 0,0.75826 0.41595,1.17952 0.95074,1.43226 3.38703,1.34802 4.87257,1.43228 4.87257,6.23459 v 29.74065 c 0,3.11729 -0.77248,5.81334 -2.79281,7.0771 -1.30728,0.84252 -3.26819,1.26377 -3.26819,2.52754 0,0.84251 1.30728,1.34801 1.96091,1.43227 0.41596,0 3.92183,-0.42126 6.71464,-0.42126 6.29869,0 17.054,0.42126 19.2526,0.42126 1.01017,0 1.12901,-0.337 1.60438,-1.60077 0.47538,-1.09527 2.25802,-7.32985 2.25802,-9.68888 0,-1.26378 -0.23768,-2.10628 -0.8319,-2.10628 -0.5348,0 -1.30728,0.674 -1.60438,1.60076 -1.72323,5.13933 -2.49571,7.83536 -7.07118,7.83536 h -6.47694 c -2.85225,0 -4.10009,-3.62279 -4.10009,-8.00386 v -9.43612 c 0,-1.60078 0.29711,-2.02203 1.42611,-2.02203 h 6.23927 c 1.24785,0 1.66381,0.84251 2.07976,1.76927 0.35652,0.84252 1.129,3.20154 1.90148,3.20154 0.59422,0 0.77248,-1.34802 0.77248,-2.19052 0,-0.92676 -0.0595,-3.53855 -0.0595,-4.80232 0,-1.26377 0.23769,-4.21256 0.23769,-4.88656 0,-1.01102 -0.11884,-1.68503 -0.65364,-1.68503 -0.65363,0 -1.18843,1.26377 -1.84207,2.10628 -1.06959,1.43227 -1.72322,2.35903 -3.62471,2.35903 h -5.11027 c -0.83189,0 -1.36669,-0.58976 -1.36669,-2.61178 z" />
  <path
     inkscape:connector-curvature="0"
     id="path28"
     style="font-style:normal;font-variant:normal;font-weight:normal;font-stretch:normal;font-size:70.75547791px;line-height:125%;font-family:'EB Garamond SC';-inkscape-font-specification:'EB Garamond SC, Normal';font-variant-ligatures:normal;font-variant-position:normal;font-variant-caps:normal;font-variant-numeric:normal;font-feature-settings:normal;text-align:center;letter-spacing:0px;word-spacing:0px;writing-mode:lr-tb;text-anchor:middle;fill:#000000;fill-opacity:1;stroke:none;stroke-width:4.85263538px;stroke-linecap:butt;stroke-linejoin:miter;stroke-opacity:1"
     d="m 261.63878,715.89477 c -12.00315,0 -22.16425,11.79516 -22.16425,28.64539 0,13.39593 8.97267,24.60133 18.4207,24.60133 6.12042,0 17.3511,-2.69603 17.3511,-4.63381 0,-0.75826 -1.60438,-1.85352 -1.60438,-3.79131 v -8.84636 c 0,-1.01102 1.84207,-2.94879 2.67397,-3.4543 0.77248,-0.42125 1.42612,-1.43227 1.42612,-1.93777 0,-1.01102 -0.41595,-1.68503 -1.18843,-1.68503 -1.48554,0 -3.20877,0.33701 -5.16968,0.33701 -2.02033,0 -6.47696,-0.33701 -8.02192,-0.33701 -0.59421,0 -1.24785,0.42125 -1.24785,1.34801 0,1.26378 1.01017,1.51652 2.79281,2.44329 1.30728,0.67401 3.20877,2.44328 3.20877,3.4543 v 10.19439 c 0,1.43226 -4.51604,3.20154 -7.66539,3.20154 -8.5567,0 -14.3206,-11.62666 -14.3206,-23.84307 0,-11.45817 5.58563,-21.90531 13.48871,-21.90531 4.63487,0 9.0915,2.10628 11.2901,8.00387 0.83189,2.27477 1.48554,3.37004 1.96091,3.37004 0.53479,0 0.95075,-0.50551 0.95075,-1.26377 0,-2.35903 -0.47538,-6.99284 -0.71307,-8.2566 -0.17826,-0.92676 -0.35652,-2.52754 -1.01016,-2.7803 -3.98125,-1.51651 -4.932,-2.86453 -10.45821,-2.86453 z" />
  <path
     inkscape:connector-curvature="0"
     id="path30"
     style="font-style:normal;font-variant:normal;font-weight:normal;font-stretch:normal;font-size:70.75547791px;line-height:125%;font-family:'EB Garamond SC';-inkscape-font-specification:'EB Garamond SC, Normal';font-variant-ligatures:normal;font-variant-position:normal;font-variant-caps:normal;font-variant-numeric:normal;font-feature-settings:normal;text-align:center;letter-spacing:0px;word-spacing:0px;writing-mode:lr-tb;text-anchor:middle;fill:#000000;fill-opacity:1;stroke:none;stroke-width:4.85263538px;stroke-linecap:butt;stroke-linejoin:miter;stroke-opacity:1"
     d="m 287.66174,739.31658 c 0,-9.26762 4.75373,-18.70374 11.2901,-18.70374 7.72481,0 11.8249,11.96365 11.8249,22.91631 0,10.02588 -3.08992,20.72577 -10.16109,20.72577 -8.2596,0 -12.95391,-13.22743 -12.95391,-24.93834 z m 13.54812,-22.57931 c -11.76547,0 -20.20334,9.60464 -20.20334,25.5281 0,15.33372 8.14076,25.8651 18.77723,25.8651 10.16109,0 17.64821,-12.72191 17.64821,-27.12886 0,-12.30067 -8.14076,-24.26434 -16.2221,-24.26434 z" />
  <path
     inkscape:connector-curvature="0"
     id="path32"
     style="font-style:normal;font-variant:normal;font-weight:normal;font-stretch:normal;font-size:70.75547791px;line-height:125%;font-family:'EB Garamond SC';-inkscape-font-specification:'EB Garamond SC, Normal';font-variant-ligatures:normal;font-variant-position:normal;font-variant-caps:normal;font-variant-numeric:normal;font-feature-settings:normal;text-align:center;letter-spacing:0px;word-spacing:0px;writing-mode:lr-tb;text-anchor:middle;fill:#000000;fill-opacity:1;stroke:none;stroke-width:4.85263538px;stroke-linecap:butt;stroke-linejoin:miter;stroke-opacity:1"
     d="m 352.0701,725.66789 c 0,-3.28579 0.53479,-4.12829 3.26819,-5.39207 0.53479,-0.25274 1.01016,-0.674 1.01016,-1.43226 0,-1.01102 -1.18843,-1.51653 -2.07975,-1.51653 -0.89132,0 -2.91166,0.42126 -3.80298,0.42126 -0.89132,0 -2.97109,-0.42126 -3.86241,-0.42126 -0.89132,0 -2.07975,0.50551 -2.07975,1.51653 0,0.75826 0.47537,1.26376 1.01016,1.51652 2.49571,1.17952 3.14935,1.09526 3.14935,5.47632 v 15.67071 c 0,13.14319 -2.02033,21.90531 -10.16109,21.90531 -7.24944,0 -8.97266,-6.7401 -8.97266,-20.22029 v -16.85022 c 0,-3.37005 1.42611,-4.88657 3.98125,-6.06609 0.53479,-0.25274 0.89132,-0.674 0.89132,-1.43226 0,-1.01102 -1.18843,-1.51653 -2.07976,-1.51653 -2.02033,0 -4.69431,0.42126 -6.77406,0.42126 -2.13918,0 -2.37687,-0.42126 -4.69431,-0.42126 -0.89132,0 -2.07975,0.50551 -2.07975,1.51653 0,0.75826 0.41595,1.17952 0.95075,1.43226 3.74355,1.76928 4.15951,2.19054 4.15951,6.23459 v 19.04076 c 0,12.89042 2.73339,22.0738 13.36985,22.0738 8.73498,0 14.79598,-8.50936 14.79598,-21.56829 z" />
  <path
     inkscape:connector-curvature="0"
     id="path34"
     style="font-style:normal;font-variant:normal;font-weight:normal;font-stretch:normal;font-size:70.75547791px;line-height:125%;font-family:'EB Garamond SC';-inkscape-font-specification:'EB Garamond SC, Normal';font-variant-ligatures:normal;font-variant-position:normal;font-variant-caps:normal;font-variant-numeric:normal;font-feature-settings:normal;text-align:center;letter-spacing:0px;word-spacing:0px;writing-mode:lr-tb;text-anchor:middle;fill:#000000;fill-opacity:1;stroke:none;stroke-width:4.85263538px;stroke-linecap:butt;stroke-linejoin:miter;stroke-opacity:1"
     d="m 368.36276,737.12606 v -14.1542 c 0,-1.09526 0.23769,-1.76928 1.84207,-1.76928 h 7.07117 c 2.85223,0 4.33778,1.34802 4.81315,2.78029 0.53479,1.68502 1.42612,3.20155 2.13918,3.20155 0.71306,0 0.95074,-1.17951 0.95074,-2.19053 0,-0.92676 -0.29711,-5.56057 -0.53479,-6.9086 -0.11884,-0.75826 -0.59421,-1.17952 -1.54496,-1.17952 -1.06959,0 -4.57546,0.42126 -7.07117,0.42126 h -17.054 c -1.24785,0 -2.07976,0.50551 -2.07976,1.51653 0,0.75826 0.41596,1.17952 0.95075,1.43226 3.38703,1.34802 4.87257,1.43228 4.87257,6.23459 v 29.74065 c 0,3.11729 -0.77248,5.81334 -2.79281,7.0771 -1.30728,0.84252 -3.26819,1.26377 -3.26819,2.52754 0,0.84251 1.30727,1.34801 1.96091,1.43227 0.41595,0 3.92182,-0.42126 6.71464,-0.42126 6.29869,0 17.054,0.42126 19.25259,0.42126 1.01018,0 1.12902,-0.337 1.60439,-1.60077 0.47538,-1.09527 2.25802,-7.32985 2.25802,-9.68888 0,-1.26378 -0.23768,-2.10628 -0.8319,-2.10628 -0.5348,0 -1.30728,0.674 -1.60438,1.60076 -1.72323,5.13933 -2.49571,7.83536 -7.07118,7.83536 h -6.47695 c -2.85224,0 -4.10009,-3.62279 -4.10009,-8.00386 v -9.43612 c 0,-1.60078 0.29711,-2.02203 1.42612,-2.02203 h 6.23927 c 1.24785,0 1.6638,0.84251 2.07976,1.76927 0.35652,0.84252 1.129,3.20154 1.90148,3.20154 0.59422,0 0.77248,-1.34802 0.77248,-2.19052 0,-0.92676 -0.0595,-3.53855 -0.0595,-4.80232 0,-1.26377 0.23769,-4.21256 0.23769,-4.88656 0,-1.01102 -0.11884,-1.68503 -0.65364,-1.68503 -0.65364,0 -1.18843,1.26377 -1.84207,2.10628 -1.06959,1.43227 -1.72323,2.35903 -3.62471,2.35903 h -5.11026 c -0.8319,0 -1.3667,-0.58976 -1.3667,-2.61178 z" />
  <path
     inkscape:connector-curvature="0"
     id="path36"
     style="font-style:normal;font-variant:normal;font-weight:normal;font-stretch:normal;font-size:70.75547791px;line-height:125%;font-family:'EB Garamond SC';-inkscape-font-specification:'EB Garamond SC, Normal';font-variant-ligatures:normal;font-variant-position:normal;font-variant-caps:normal;font-variant-numeric:normal;font-feature-settings:normal;text-align:center;letter-spacing:0px;word-spacing:0px;writing-mode:lr-tb;text-anchor:middle;fill:#000000;fill-opacity:1;stroke:none;stroke-width:4.85263538px;stroke-linecap:butt;stroke-linejoin:miter;stroke-opacity:1"
     d="m 405.04724,724.57263 v 31.67843 c 0,3.11729 -0.77248,5.81334 -2.79281,7.0771 -1.30728,0.84252 -3.26819,1.26377 -3.26819,2.52754 0,0.84251 1.30727,1.34801 1.96091,1.43227 0.41595,0 3.92182,-0.50551 6.71464,-0.50551 2.85224,0 6.77406,0.50551 7.19001,0.50551 0.65364,-0.0843 1.9015,-0.58976 1.9015,-1.43227 0,-1.26377 -1.96092,-1.68502 -3.2682,-2.52754 -2.02033,-1.26376 -2.79281,-3.95981 -2.79281,-7.0771 v -31.67843 c 0,-0.84251 0.11885,-2.61179 0.71306,-2.61179 h 9.21035 c 0.8319,0 1.60438,1.09527 2.13918,2.35904 0.65363,1.60077 1.54495,3.7913 2.13918,3.7913 0.71305,0 0.83189,-0.67401 0.83189,-1.93777 0,-0.92676 -0.11884,-3.79131 -0.11884,-5.81333 0,-1.85353 0.23768,-2.86455 0.23768,-3.62281 0,-0.674 -0.35652,-1.51652 -1.06959,-1.51652 -0.71305,0 -1.01016,0.67402 -1.72321,1.26378 -1.06959,0.8425 -2.02034,1.43226 -4.15952,1.43226 h -20.73814 c -0.47537,0 -1.60438,-0.337 -3.50587,-0.58976 -1.06959,-0.92676 -1.54496,-1.93777 -2.13918,-1.93777 -0.59421,0 -1.01016,1.01101 -1.01016,2.10627 0,0.84252 0.11884,2.44329 0.11884,3.79131 0,2.69603 -0.29711,3.37005 -0.29711,5.30782 0,0.75826 0.29711,1.93778 1.06959,1.93778 0.83191,0 1.24785,-2.35903 1.90149,-4.04405 0.59422,-1.51653 1.01017,-2.52755 2.55513,-2.52755 h 7.24944 c 0.59421,0 0.95074,0.92677 0.95074,2.61179 z" />
  <path
     inkscape:connector-curvature="0"
     id="path38"
     style="font-style:normal;font-variant:normal;font-weight:normal;font-stretch:normal;font-size:70.75547791px;line-height:125%;font-family:'EB Garamond SC';-inkscape-font-specification:'EB Garamond SC, Normal';font-variant-ligatures:normal;font-variant-position:normal;font-variant-caps:normal;font-variant-numeric:normal;font-feature-settings:normal;text-align:center;letter-spacing:0px;word-spacing:0px;writing-mode:lr-tb;text-anchor:middle;fill:#000000;fill-opacity:1;stroke:none;stroke-width:4.85263538px;stroke-linecap:butt;stroke-linejoin:miter;stroke-opacity:1"
     d="m 455.72366,744.2874 -14.14234,1.60078 c -1.54496,0.25274 -2.1986,3.20154 -2.1986,4.80231 0,1.68502 1.18844,1.85352 3.20877,1.60077 l 13.01333,-1.51651 c 1.36669,-0.0843 1.96091,-2.19054 1.96091,-4.12831 0,-1.93778 -1.01017,-2.44329 -1.84207,-2.35904 z" />
  <path
     inkscape:connector-curvature="0"
     id="path40"
     style="font-style:normal;font-variant:normal;font-weight:normal;font-stretch:normal;font-size:70.75547791px;line-height:125%;font-family:'EB Garamond SC';-inkscape-font-specification:'EB Garamond SC, Normal';font-variant-ligatures:normal;font-variant-position:normal;font-variant-caps:normal;font-variant-numeric:normal;font-feature-settings:normal;text-align:center;letter-spacing:0px;word-spacing:0px;writing-mode:lr-tb;text-anchor:middle;fill:#000000;fill-opacity:1;stroke:none;stroke-width:4.85263538px;stroke-linecap:butt;stroke-linejoin:miter;stroke-opacity:1"
     d="m 475.13965,767.28797 c 0.41595,0 3.92182,-0.50551 6.71464,-0.50551 2.85224,0 6.77406,0.50551 7.19001,0.50551 0.65364,-0.0843 1.9015,-0.58976 1.9015,-1.43227 0,-1.26377 -1.96092,-1.68502 -3.26819,-2.52754 -2.02034,-1.26376 -2.79282,-3.95981 -2.79282,-7.16134 l -0.0595,-10.5314 c 0,-1.60077 0.29711,-2.02203 1.42613,-2.02203 h 5.76389 c 1.24785,0 1.6638,0.84252 2.07976,1.76928 0.35652,0.84251 1.129,3.20154 1.90148,3.20154 0.59422,0 0.77249,-1.34801 0.77249,-2.19053 0,-0.92676 -0.0595,-3.53855 -0.0595,-4.80231 0,-1.26377 0.23769,-4.21256 0.23769,-4.88657 0,-1.01101 -0.11884,-1.68503 -0.65364,-1.68503 -0.65364,0 -1.18843,1.26377 -1.84207,2.10629 -1.06959,1.43226 -1.72323,2.35902 -3.62471,2.35902 H 486.192 c -0.8319,0 -1.3667,-0.58976 -1.3667,-2.61178 l 0.0595,-13.90144 c 0,-1.09526 0.23768,-1.76928 1.84207,-1.76928 h 6.5958 c 2.85223,0 4.33777,1.34802 4.81314,2.78029 0.5348,1.68502 1.42612,3.20155 2.13918,3.20155 0.71306,0 0.95075,-1.17951 0.95075,-2.19053 0,-0.92676 -0.29711,-5.56057 -0.53479,-6.9086 -0.11885,-0.75826 -0.59422,-1.17952 -1.54497,-1.17952 -1.06958,0 -4.57546,0.42126 -7.07117,0.42126 h -16.57859 c -1.24785,0 -2.07976,0.50551 -2.07976,1.51653 0,0.75826 0.41596,1.17952 0.95075,1.43226 3.38703,1.34802 4.87257,1.43228 4.87257,6.23459 v 29.74065 c 0,3.11729 -0.77248,5.81334 -2.79281,7.0771 -1.30728,0.84252 -3.26819,1.26377 -3.26819,2.52754 0,0.84251 1.30727,1.34801 1.96091,1.43227 z" />
  <path
     inkscape:connector-curvature="0"
     id="path42"
     style="font-style:normal;font-variant:normal;font-weight:normal;font-stretch:normal;font-size:70.75547791px;line-height:125%;font-family:'EB Garamond SC';-inkscape-font-specification:'EB Garamond SC, Normal';font-variant-ligatures:normal;font-variant-position:normal;font-variant-caps:normal;font-variant-numeric:normal;font-feature-settings:normal;text-align:center;letter-spacing:0px;word-spacing:0px;writing-mode:lr-tb;text-anchor:middle;fill:#000000;fill-opacity:1;stroke:none;stroke-width:4.85263538px;stroke-linecap:butt;stroke-linejoin:miter;stroke-opacity:1"
     d="m 517.04859,712.35622 c 0.17827,0 0.5348,-0.1685 1.06959,-0.75826 2.37687,-2.52754 5.34795,-5.72908 7.72481,-8.59362 0.53479,-0.67401 0.77249,-1.01102 0.77249,-1.60077 0,-1.17952 -2.97109,-1.93778 -3.80299,-1.93778 -0.65363,0 -1.18843,0.25276 -1.60438,1.09526 -1.60438,3.28579 -2.79282,6.65584 -4.21893,10.02589 -0.17827,0.42126 -0.29711,0.92676 -0.29711,1.26378 0,0.25274 0.11884,0.5055 0.35652,0.5055 z m -3.14934,24.76984 v -14.1542 c 0,-1.09526 0.23769,-1.76928 1.84207,-1.76928 h 7.07117 c 2.85224,0 4.33778,1.34802 4.81315,2.78029 0.5348,1.68502 1.42612,3.20155 2.13918,3.20155 0.71305,0 0.95074,-1.17951 0.95074,-2.19053 0,-0.92676 -0.2971,-5.56057 -0.5348,-6.9086 -0.11884,-0.75826 -0.59421,-1.17952 -1.54495,-1.17952 -1.06959,0 -4.57547,0.42126 -7.07117,0.42126 h -17.054 c -1.24786,0 -2.07975,0.50551 -2.07975,1.51653 0,0.75826 0.41594,1.17952 0.95074,1.43226 3.38703,1.34802 4.87257,1.43228 4.87257,6.23459 v 29.74065 c 0,3.11729 -0.77248,5.81334 -2.79281,7.0771 -1.30728,0.84252 -3.2682,1.26377 -3.2682,2.52754 0,0.84251 1.30728,1.34801 1.96092,1.43227 0.41595,0 3.92183,-0.42126 6.71464,-0.42126 6.29869,0 17.054,0.42126 19.2526,0.42126 1.01016,0 1.129,-0.337 1.60438,-1.60077 0.47537,-1.09527 2.25802,-7.32985 2.25802,-9.68888 0,-1.26378 -0.23769,-2.10628 -0.8319,-2.10628 -0.5348,0 -1.30728,0.674 -1.60439,1.60076 -1.72322,5.13933 -2.4957,7.83536 -7.07116,7.83536 h -6.47696 c -2.85223,0 -4.10009,-3.62279 -4.10009,-8.00386 v -9.43612 c 0,-1.60078 0.29711,-2.02203 1.42612,-2.02203 h 6.23927 c 1.24785,0 1.6638,0.84251 2.07975,1.76927 0.35653,0.84252 1.12902,3.20154 1.9015,3.20154 0.59421,0 0.77248,-1.34802 0.77248,-2.19052 0,-0.92676 -0.0595,-3.53855 -0.0595,-4.80232 0,-1.26377 0.23768,-4.21256 0.23768,-4.88656 0,-1.01102 -0.11884,-1.68503 -0.65364,-1.68503 -0.65363,0 -1.18842,1.26377 -1.84207,2.10628 -1.06958,1.43227 -1.72321,2.35903 -3.62471,2.35903 h -5.11025 c -0.83191,0 -1.3667,-0.58976 -1.3667,-2.61178 z" />
  <path
     inkscape:connector-curvature="0"
     id="path44"
     style="font-style:normal;font-variant:normal;font-weight:normal;font-stretch:normal;font-size:70.75547791px;line-height:125%;font-family:'EB Garamond SC';-inkscape-font-specification:'EB Garamond SC, Normal';font-variant-ligatures:normal;font-variant-position:normal;font-variant-caps:normal;font-variant-numeric:normal;font-feature-settings:normal;text-align:center;letter-spacing:0px;word-spacing:0px;writing-mode:lr-tb;text-anchor:middle;fill:#000000;fill-opacity:1;stroke:none;stroke-width:4.85263538px;stroke-linecap:butt;stroke-linejoin:miter;stroke-opacity:1"
     d="m 547.67207,755.40856 v -28.89815 c 0,-4.80231 1.60438,-4.88657 4.99141,-6.23459 0.5348,-0.25274 0.89132,-0.674 0.89132,-1.43226 0,-1.01102 -1.18843,-1.51653 -2.07975,-1.51653 -2.02033,0 -4.45662,0.42126 -6.53637,0.42126 -2.13918,0 -4.27835,-0.42126 -6.5958,-0.42126 -1.30728,0 -2.13918,0.50551 -2.13918,1.51653 0,0.75826 0.41595,1.17952 0.95075,1.43226 3.38703,1.34802 4.87257,1.43228 4.87257,6.23459 v 29.74065 c 0,3.11729 -0.77248,5.81334 -2.79282,7.0771 -1.30727,0.84252 -3.26819,1.26377 -3.26819,2.52754 0,0.84251 1.30728,1.34801 1.96092,1.43227 0.41595,0 3.92183,-0.42126 6.71464,-0.42126 6.29869,0 17.52937,0.42126 19.72797,0.42126 1.01016,0 1.18843,-0.337 1.6638,-1.60077 0.47538,-1.09527 1.96092,-7.91961 1.96092,-10.1944 0,-2.35903 -0.47538,-3.95979 -1.06959,-3.95979 -0.5348,0 -1.30728,0.674 -1.60439,1.60076 -1.72322,5.13932 -2.4957,10.19439 -7.07116,10.19439 h -6.47696 c -2.85223,0 -4.10009,-3.62279 -4.10009,-7.9196 z" />
  <path
     inkscape:connector-curvature="0"
     id="path46"
     style="font-style:normal;font-variant:normal;font-weight:normal;font-stretch:normal;font-size:70.75547791px;line-height:125%;font-family:'EB Garamond SC';-inkscape-font-specification:'EB Garamond SC, Normal';font-variant-ligatures:normal;font-variant-position:normal;font-variant-caps:normal;font-variant-numeric:normal;font-feature-settings:normal;text-align:center;letter-spacing:0px;word-spacing:0px;writing-mode:lr-tb;text-anchor:middle;fill:#000000;fill-opacity:1;stroke:none;stroke-width:4.85263538px;stroke-linecap:butt;stroke-linejoin:miter;stroke-opacity:1"
     d="m 586.58114,717.32703 c -2.02034,0 -4.45662,0.42126 -6.53638,0.42126 -2.13918,0 -4.27836,-0.42126 -6.59579,-0.42126 -0.89133,0 -2.07976,0.50551 -2.07976,1.51653 0,0.75826 0.41595,1.17952 0.95075,1.43226 3.38703,1.34802 4.87257,1.43228 4.87257,6.23459 v 29.74065 c 0,3.11729 -0.77249,5.81334 -2.79282,7.0771 -1.30727,0.84252 -3.26818,1.26377 -3.26818,2.52754 0,0.84251 1.30727,1.34801 1.96091,1.43227 0.41595,0 3.92182,-0.50551 6.71464,-0.50551 2.85223,0 6.77406,0.50551 7.19001,0.50551 0.65364,-0.0843 1.90149,-0.58976 1.90149,-1.43227 0,-1.26377 -1.96092,-1.68502 -3.26819,-2.52754 -2.02033,-1.26376 -2.79281,-3.95981 -2.79281,-7.0771 v -29.74065 c 0,-4.80231 1.54496,-4.88657 4.93199,-6.23459 0.53479,-0.25274 0.89132,-0.674 0.89132,-1.43226 0,-1.01102 -1.18843,-1.51653 -2.07975,-1.51653 z" />
  <path
     inkscape:connector-curvature="0"
     id="path48"
     style="font-style:normal;font-variant:normal;font-weight:normal;font-stretch:normal;font-size:70.75547791px;line-height:125%;font-family:'EB Garamond SC';-inkscape-font-specification:'EB Garamond SC, Normal';font-variant-ligatures:normal;font-variant-position:normal;font-variant-caps:normal;font-variant-numeric:normal;font-feature-settings:normal;text-align:center;letter-spacing:0px;word-spacing:0px;writing-mode:lr-tb;text-anchor:middle;fill:#000000;fill-opacity:1;stroke:none;stroke-width:4.85263538px;stroke-linecap:butt;stroke-linejoin:miter;stroke-opacity:1"
     d="m 605.34905,722.71911 c 0,-0.58976 0.23769,-1.60077 1.96092,-2.44329 0.53479,-0.25274 0.89132,-0.674 0.89132,-1.43226 0,-1.01102 -1.18843,-1.43227 -2.07976,-1.43227 -2.02033,0 -3.62472,0.337 -5.70447,0.337 -2.13918,0 -2.37687,-0.337 -4.69431,-0.337 -0.89132,0 -2.07975,0.42125 -2.07975,1.43227 0,0.75826 0.65364,1.51652 1.18843,1.76928 3.92183,1.93776 6.17985,7.7511 7.24943,10.61564 l 4.51604,11.87941 -6.8929,14.74395 c -1.54496,2.86453 -3.14934,4.21256 -5.11026,5.47632 -1.30728,0.84252 -3.26819,1.26377 -3.26819,2.52754 0,0.92676 0.83191,1.43227 1.96091,1.43227 0.89134,0 2.25803,-0.50551 3.74357,-0.50551 1.12901,0 3.74356,0.50551 4.87257,0.50551 1.48554,0 2.07975,-0.50551 2.07975,-1.43227 0,-0.84252 -0.35652,-1.76928 -1.90149,-2.35904 -1.12901,-0.42125 -0.53479,-2.78029 0.11885,-4.12831 l 5.76389,-12.63767 4.33778,11.45817 c 0.77248,1.85352 1.54496,3.70704 -0.59422,5.13931 -1.30727,0.84252 -3.20876,1.26377 -3.20876,2.52754 0,0.92676 1.12901,1.43227 1.90149,1.43227 1.78265,0 4.04066,-0.50551 7.96249,-0.50551 1.96092,0 4.10009,0.50551 5.46679,0.50551 1.129,0 1.72322,-0.42126 1.72322,-1.34802 0,-0.84251 -0.53479,-1.68503 -2.37686,-2.61179 -2.91166,-1.51652 -4.45662,-4.12831 -5.28852,-6.31883 l -6.65522,-17.43999 5.58563,-12.21642 c 1.3667,-2.94879 3.08992,-5.39208 6.65522,-7.0771 0.53479,-0.25274 1.01016,-0.674 1.01016,-1.43226 0,-1.01102 -1.18843,-1.43227 -2.07975,-1.43227 -0.89132,0 -2.91166,0.337 -3.80298,0.337 -0.89132,0 -3.38703,-0.337 -4.27836,-0.337 -0.89132,0 -2.07975,0.42125 -2.07975,1.43227 0,0.75826 0.47537,1.26376 1.01016,1.51652 1.06959,0.5055 1.78265,1.85352 1.78265,2.86453 0,1.34802 -1.06959,4.12831 -1.90149,5.98183 l -3.20876,6.82435 -4.04067,-10.61564 c -0.23769,-0.58976 -0.5348,-2.27479 -0.5348,-2.69604 z" />
  <path
     inkscape:connector-curvature="0"
     id="path50"
     style="font-style:normal;font-variant:normal;font-weight:normal;font-stretch:normal;font-size:70.75547791px;line-height:125%;font-family:'EB Garamond SC';-inkscape-font-specification:'EB Garamond SC, Normal';font-variant-ligatures:normal;font-variant-position:normal;font-variant-caps:normal;font-variant-numeric:normal;font-feature-settings:normal;text-align:center;letter-spacing:0px;word-spacing:0px;writing-mode:lr-tb;text-anchor:middle;fill:#000000;fill-opacity:1;stroke:none;stroke-width:4.85263538px;stroke-linecap:butt;stroke-linejoin:miter;stroke-opacity:1"
     d="m 652.55118,716.48453 c -5.82332,0 -10.57705,7.16134 -10.57705,15.5022 0,3.20155 0.89133,5.64483 2.61455,7.58261 l 8.91324,10.36289 c 1.30728,1.51652 2.37687,3.20154 2.37687,5.56057 0,4.88657 -1.96092,9.26764 -5.16968,9.26764 -3.44645,0 -5.76389,-2.44329 -6.41753,-5.47633 -0.53479,-2.52753 -0.95075,-3.79131 -1.90149,-3.79131 -1.18844,0 -1.60439,2.94879 -1.60439,5.64483 0,2.69605 0.5348,3.62281 2.73339,5.05507 1.42613,0.92677 4.39721,1.85353 6.23927,1.85353 6.12043,0 11.94374,-5.89758 11.94374,-14.40695 0,-3.20155 -1.06959,-6.48734 -2.85223,-8.59362 l -8.37844,-10.02589 c -1.72323,-2.10628 -3.0305,-3.28579 -3.0305,-6.06607 0,-4.12831 1.90148,-7.66686 4.87256,-7.66686 1.60438,0 3.50588,0.337 4.69431,3.03304 1.24785,2.78029 1.6638,3.87556 2.37687,3.87556 0.89132,0 1.18843,-1.17952 1.18843,-2.27479 0,-2.94879 -0.0595,-5.56057 -2.02034,-7.16135 -1.3667,-1.09526 -4.10009,-2.27477 -6.00158,-2.27477 z" />
  <path
     inkscape:connector-curvature="0"
     id="path52"
     style="font-style:normal;font-variant:normal;font-weight:normal;font-stretch:normal;font-size:70.75547791px;line-height:125%;font-family:'EB Garamond SC';-inkscape-font-specification:'EB Garamond SC, Normal';font-variant-ligatures:normal;font-variant-position:normal;font-variant-caps:normal;font-variant-numeric:normal;font-feature-settings:normal;text-align:center;letter-spacing:0px;word-spacing:0px;writing-mode:lr-tb;text-anchor:middle;fill:#000000;fill-opacity:1;stroke:none;stroke-width:4.85263538px;stroke-linecap:butt;stroke-linejoin:miter;stroke-opacity:1"
     d="m 679.65946,717.32703 c -2.02033,0 -4.45661,0.42126 -6.53637,0.42126 -2.13918,0 -4.27836,-0.42126 -6.5958,-0.42126 -0.89132,0 -2.07975,0.50551 -2.07975,1.51653 0,0.75826 0.41594,1.17952 0.95074,1.43226 3.38704,1.34802 4.87257,1.43228 4.87257,6.23459 v 29.74065 c 0,3.11729 -0.77248,5.81334 -2.79281,7.0771 -1.30728,0.84252 -3.26819,1.26377 -3.26819,2.52754 0,0.84251 1.30727,1.34801 1.96091,1.43227 0.41595,0 3.92183,-0.50551 6.71464,-0.50551 2.85224,0 6.77406,0.50551 7.19002,0.50551 0.65363,-0.0843 1.90148,-0.58976 1.90148,-1.43227 0,-1.26377 -1.96091,-1.68502 -3.26818,-2.52754 -2.02034,-1.26376 -2.79282,-3.95981 -2.79282,-7.0771 v -29.74065 c 0,-4.80231 1.54497,-4.88657 4.932,-6.23459 0.53479,-0.25274 0.89132,-0.674 0.89132,-1.43226 0,-1.01102 -1.18843,-1.51653 -2.07976,-1.51653 z" />
  <path
     inkscape:connector-curvature="0"
     id="path54"
     style="font-style:normal;font-variant:normal;font-weight:normal;font-stretch:normal;font-size:70.75547791px;line-height:125%;font-family:'EB Garamond SC';-inkscape-font-specification:'EB Garamond SC, Normal';font-variant-ligatures:normal;font-variant-position:normal;font-variant-caps:normal;font-variant-numeric:normal;font-feature-settings:normal;text-align:center;letter-spacing:0px;word-spacing:0px;writing-mode:lr-tb;text-anchor:middle;fill:#000000;fill-opacity:1;stroke:none;stroke-width:4.85263538px;stroke-linecap:butt;stroke-linejoin:miter;stroke-opacity:1"
     d="m 695.93172,723.05611 c 0,-1.60077 1.30727,-2.86453 2.97108,-2.86453 3.98124,0 7.48712,4.1283 7.48712,9.77312 0,4.38107 -1.30727,7.41411 -3.62472,10.1944 -1.6638,2.02203 -2.55512,2.19053 -2.55512,3.03303 0,1.01102 0.41595,1.43228 1.06959,1.43228 0.65363,0 1.60437,0 3.80298,-1.68502 4.15951,-3.20155 7.24943,-7.32986 7.24943,-14.23845 0,-8.50936 -6.65522,-12.21641 -12.6568,-12.21641 -5.28852,0 -7.7248,0.25274 -12.95391,0.8425 -1.24785,0.0843 -2.07975,0.50551 -2.07975,1.51653 0,0.75826 0.41595,1.17952 0.95074,1.43226 3.38703,1.34802 4.87257,1.43228 4.87257,6.23459 v 29.74065 c 0,3.11729 -0.77248,5.81334 -2.79281,7.0771 -1.30728,0.84252 -3.26819,1.26377 -3.26819,2.52754 0,0.84251 1.30727,1.34801 1.96091,1.43227 0.41595,0 3.98125,-0.50551 6.53638,-0.50551 2.85224,0 6.77406,0.50551 7.19001,0.50551 0.65364,-0.0843 1.90149,-0.58976 1.90149,-1.43227 0,-1.26377 -1.96091,-1.68502 -3.26819,-2.52754 -2.02032,-1.26376 -2.79281,-3.95981 -2.79281,-7.0771 z" />
  <path
     inkscape:connector-curvature="0"
     id="path56"
     style="font-style:normal;font-variant:normal;font-weight:normal;font-stretch:normal;font-size:70.75547791px;line-height:125%;font-family:'EB Garamond SC';-inkscape-font-specification:'EB Garamond SC, Normal';font-variant-ligatures:normal;font-variant-position:normal;font-variant-caps:normal;font-variant-numeric:normal;font-feature-settings:normal;text-align:center;letter-spacing:0px;word-spacing:0px;writing-mode:lr-tb;text-anchor:middle;fill:#000000;fill-opacity:1;stroke:none;stroke-width:4.85263538px;stroke-linecap:butt;stroke-linejoin:miter;stroke-opacity:1"
     d="m 757.26409,756.25106 -1.01017,-27.80288 c -0.17827,-4.80231 0.47537,-6.48734 2.31744,-7.5826 2.37687,-1.43226 2.85224,-1.68502 2.85224,-2.52753 0,-0.84252 -0.23769,-1.43228 -0.95074,-1.43228 -1.9015,0 -6.00159,0.84252 -7.54655,0.84252 -1.54496,0 -2.37686,0 -3.0305,1.93777 l -8.37844,24.68559 c -0.59422,1.85353 -1.24786,2.86455 -1.72323,2.86455 -0.29711,0 -1.30728,-0.84252 -1.48554,-1.43228 l -6.53638,-22.74781 c -1.129,-3.7913 -2.13918,-5.30782 -3.74355,-5.30782 -2.7334,0 -4.45663,-0.42126 -6.5958,-0.42126 -0.71306,0 -2.02034,-0.0842 -2.02034,1.17952 0,1.34802 2.13918,2.61179 3.20877,4.04405 1.48554,1.93779 2.43628,3.53855 1.90149,9.52039 l -2.02033,22.41081 c -0.41595,4.21255 -1.42613,7.5826 -3.44646,8.84636 -1.3667,0.84252 -3.26818,1.26377 -3.26818,2.52754 0,0.84251 1.30727,1.34801 1.96091,1.43227 0.41595,0 2.67397,-0.50551 5.46678,-0.50551 2.85225,0 5.46679,0.50551 5.88274,0.50551 0.65364,-0.0843 1.90149,-0.58976 1.90149,-1.43227 0,-1.26377 -1.96091,-1.68502 -3.26818,-2.52754 -1.54496,-1.01101 -1.96091,-5.13931 -1.84207,-7.4141 l 0.77248,-17.9455 c 0.29711,-6.74008 0.59421,-5.89757 1.06959,-5.89757 0.47537,0 1.01016,1.43226 2.07975,5.39207 l 5.88274,21.39979 c 1.24785,4.54957 1.72322,5.22357 2.31744,5.22357 0.5348,0 3.03051,-7.2456 3.26819,-8.00386 l 5.40737,-17.60848 c 1.90148,-6.7401 2.73339,-6.65585 3.26818,-6.65585 0.5348,0 1.01017,3.87556 1.18844,8.17236 l 0.47537,16.26047 c 0.11884,3.11729 -0.77248,5.81334 -2.79282,7.0771 -1.30728,0.84252 -3.26819,1.26377 -3.26819,2.52754 0,0.84251 1.30728,1.34801 1.96091,1.43227 0.41596,0 3.92183,-0.50551 6.71465,-0.50551 2.85223,0 6.77406,0.50551 7.19001,0.50551 0.65363,-0.0843 1.90149,-0.58976 1.90149,-1.43227 0,-1.26377 -1.96091,-1.68502 -3.26819,-2.52754 -2.02033,-1.26376 -2.67397,-3.95981 -2.79281,-7.0771 z" />
  <path
     inkscape:connector-curvature="0"
     id="path58"
     style="font-style:normal;font-variant:normal;font-weight:normal;font-stretch:normal;font-size:70.75547791px;line-height:125%;font-family:'EB Garamond SC';-inkscape-font-specification:'EB Garamond SC, Normal';font-variant-ligatures:normal;font-variant-position:normal;font-variant-caps:normal;font-variant-numeric:normal;font-feature-settings:normal;text-align:center;letter-spacing:0px;word-spacing:0px;writing-mode:lr-tb;text-anchor:middle;fill:#000000;fill-opacity:1;stroke:none;stroke-width:4.85263538px;stroke-linecap:butt;stroke-linejoin:miter;stroke-opacity:1"
     d="m 777.43772,744.20315 4.15951,-16.76598 c 0.23769,-0.84251 0.47538,-1.09526 0.65364,-0.25275 l 3.62472,15.75497 c 0.59421,2.69603 0.5348,3.03303 -0.65364,3.03303 h -7.24943 c -1.06959,0 -0.89133,-0.42125 -0.5348,-1.76927 z m 16.93516,22.57931 c 1.96091,0 4.10009,0.50551 5.46679,0.50551 1.129,0 1.72322,-0.42126 1.72322,-1.34802 0,-0.84251 -0.53479,-1.68503 -2.37686,-2.61179 -2.91166,-1.51652 -3.5653,-3.79129 -5.28852,-10.61564 l -7.84366,-31.42568 c -0.8319,-3.28579 -1.18842,-6.06609 -2.1986,-6.06609 -0.35652,0 -1.42611,2.35904 -2.55512,2.52754 -0.65364,0.0842 -0.65364,1.17952 -1.66381,4.80231 l -9.0915,35.63825 c -0.89133,3.45429 -0.8319,3.87555 -2.79282,5.13931 -1.30727,0.84252 -3.26818,1.26377 -3.26818,2.52754 0,0.92676 0.8319,1.43227 1.96091,1.43227 0.89132,0 2.25802,-0.50551 3.74356,-0.50551 1.12901,0 3.74356,0.50551 4.87257,0.50551 1.48554,0 2.07975,-0.50551 2.07975,-1.43227 0,-0.84252 -0.65364,-1.76928 -2.19859,-2.35904 -1.72323,-0.674 -1.66381,-2.02202 -1.30728,-3.53855 l 2.25802,-9.18336 c 0.23769,-0.84252 0.65364,-0.92677 0.95075,-0.92677 h 9.9234 c 0.47537,0 0.77248,0.25275 0.95075,1.01101 l 1.72323,8.00386 c 0.2971,1.43228 0.41595,3.03304 -1.72323,4.46531 -1.30727,0.84252 -3.20877,1.26377 -3.20877,2.52754 0,0.92676 1.12902,1.43227 1.9015,1.43227 1.78264,0 4.04066,-0.50551 7.96249,-0.50551 z" />
  <path
     inkscape:connector-curvature="0"
     id="path60"
     style="font-style:normal;font-variant:normal;font-weight:normal;font-stretch:normal;font-size:70.75547791px;line-height:125%;font-family:'EB Garamond SC';-inkscape-font-specification:'EB Garamond SC, Normal';font-variant-ligatures:normal;font-variant-position:normal;font-variant-caps:normal;font-variant-numeric:normal;font-feature-settings:normal;text-align:center;letter-spacing:0px;word-spacing:0px;writing-mode:lr-tb;text-anchor:middle;fill:#000000;fill-opacity:1;stroke:none;stroke-width:4.85263538px;stroke-linecap:butt;stroke-linejoin:miter;stroke-opacity:1"
     d="m 126.02758,863.67129 8.02191,-15.67072 c 0.53479,-1.01102 0.53479,0 0.53479,1.43227 v 13.90143 c 0,1.26378 0.17827,1.76928 -0.77248,1.76928 h -6.8929 c -1.12901,0 -1.42611,-0.337 -0.89132,-1.43226 z m 12.18143,-27.63438 c -0.5348,0 -1.42612,0.337 -2.02034,1.60076 l -13.36986,26.37062 c -0.95075,1.85353 -1.96091,3.20155 -1.96091,4.38105 0,1.01102 0.59421,2.02203 1.96091,2.02203 h 10.22051 c 1.24786,0 1.54496,0.67402 1.54496,1.93778 v 11.79517 c 0,1.26376 0.29711,2.52753 1.60439,2.52753 1.66381,0 3.32761,-2.27479 3.32761,-4.63382 v -8.34086 c 0,-1.93778 0.23769,-3.37004 1.06959,-3.37004 h 3.98124 c 1.9015,0 3.0305,-1.76928 3.0305,-3.62281 0,-1.09526 -0.2971,-1.60077 -0.95074,-1.60077 h -5.5262 c -1.48555,0 -1.60439,-0.58976 -1.60439,-1.85352 v -21.73679 c 0,-3.03305 -0.29711,-5.47633 -1.30727,-5.47633 z" />
  <path
     inkscape:connector-curvature="0"
     id="path62"
     style="font-style:normal;font-variant:normal;font-weight:normal;font-stretch:normal;font-size:70.75547791px;line-height:125%;font-family:'EB Garamond SC';-inkscape-font-specification:'EB Garamond SC, Normal';font-variant-ligatures:normal;font-variant-position:normal;font-variant-caps:normal;font-variant-numeric:normal;font-feature-settings:normal;text-align:center;letter-spacing:0px;word-spacing:0px;writing-mode:lr-tb;text-anchor:middle;fill:#000000;fill-opacity:1;stroke:none;stroke-width:4.85263538px;stroke-linecap:butt;stroke-linejoin:miter;stroke-opacity:1"
     d="m 165.97653,866.70432 -6.23927,0.0843 c -0.35653,0 -0.89133,-0.33701 -0.53479,-0.67401 0.59421,-0.58976 4.93199,-7.0771 6.71464,-10.11014 1.42612,-2.44329 4.15951,-7.91961 4.15951,-10.61565 0,-5.30782 -3.20877,-9.09912 -7.01175,-9.09912 -7.01174,0 -9.80456,8.00386 -9.80456,8.76212 0,0.50551 0.41595,1.85353 0.77248,1.85353 0.35653,0 0.65364,-0.50552 0.89132,-0.84252 2.02034,-3.20155 3.74356,-4.04405 6.41753,-4.04405 2.25802,0 3.68414,1.85352 3.68414,5.81333 0,6.82434 -8.02192,16.51322 -9.32919,18.02974 -0.95074,1.09527 -2.07975,2.52753 -3.08992,3.95981 -0.23768,0.337 -0.41595,0.67401 -0.41595,1.01101 0,0.337 0.77248,1.76928 0.95075,1.76928 0.29711,0 5.16967,-0.50552 9.03208,-0.50552 3.38702,0 6.061,0.50552 8.2596,0.50552 0.8319,0 3.0305,-6.15034 3.0305,-10.3629 0,-1.43227 -0.29711,-2.10627 -0.8319,-2.10627 -0.59422,0 -1.24786,1.76927 -2.55513,4.04405 -0.95075,1.60077 -2.43629,2.78029 -4.10009,2.52753 z" />
  <path
     inkscape:connector-curvature="0"
     id="path64"
     style="font-style:normal;font-variant:normal;font-weight:normal;font-stretch:normal;font-size:70.75547791px;line-height:125%;font-family:'EB Garamond SC';-inkscape-font-specification:'EB Garamond SC, Normal';font-variant-ligatures:normal;font-variant-position:normal;font-variant-caps:normal;font-variant-numeric:normal;font-feature-settings:normal;text-align:center;letter-spacing:0px;word-spacing:0px;writing-mode:lr-tb;text-anchor:middle;fill:#000000;fill-opacity:1;stroke:none;stroke-width:4.85263538px;stroke-linecap:butt;stroke-linejoin:miter;stroke-opacity:1"
     d="m 190.58078,866.70432 -6.23927,0.0843 c -0.35653,0 -0.89132,-0.33701 -0.5348,-0.67401 0.59422,-0.58976 4.932,-7.0771 6.71465,-10.11014 1.42612,-2.44329 4.15951,-7.91961 4.15951,-10.61565 0,-5.30782 -3.20877,-9.09912 -7.01175,-9.09912 -7.01175,0 -9.80456,8.00386 -9.80456,8.76212 0,0.50551 0.41595,1.85353 0.77248,1.85353 0.35653,0 0.65364,-0.50552 0.89132,-0.84252 2.02034,-3.20155 3.74357,-4.04405 6.41753,-4.04405 2.25803,0 3.68414,1.85352 3.68414,5.81333 0,6.82434 -8.02191,16.51322 -9.32919,18.02974 -0.95074,1.09527 -2.07975,2.52753 -3.08992,3.95981 -0.23769,0.337 -0.41595,0.67401 -0.41595,1.01101 0,0.337 0.77248,1.76928 0.95075,1.76928 0.2971,0 5.16967,-0.50552 9.03208,-0.50552 3.38703,0 6.061,0.50552 8.2596,0.50552 0.8319,0 3.0305,-6.15034 3.0305,-10.3629 0,-1.43227 -0.29711,-2.10627 -0.8319,-2.10627 -0.59422,0 -1.24785,1.76927 -2.55513,4.04405 -0.95075,1.60077 -2.43629,2.78029 -4.10009,2.52753 z" />
  <path
     inkscape:connector-curvature="0"
     id="path66"
     style="font-style:normal;font-variant:normal;font-weight:normal;font-stretch:normal;font-size:70.75547791px;line-height:125%;font-family:'EB Garamond SC';-inkscape-font-specification:'EB Garamond SC, Normal';font-variant-ligatures:normal;font-variant-position:normal;font-variant-caps:normal;font-variant-numeric:normal;font-feature-settings:normal;text-align:center;letter-spacing:0px;word-spacing:0px;writing-mode:lr-tb;text-anchor:middle;fill:#000000;fill-opacity:1;stroke:none;stroke-width:4.85263538px;stroke-linecap:butt;stroke-linejoin:miter;stroke-opacity:1"
     d="m 215.18503,866.70432 -6.23927,0.0843 c -0.35652,0 -0.89132,-0.33701 -0.53479,-0.67401 0.59422,-0.58976 4.93199,-7.0771 6.71464,-10.11014 1.42612,-2.44329 4.15952,-7.91961 4.15952,-10.61565 0,-5.30782 -3.20877,-9.09912 -7.01176,-9.09912 -7.01175,0 -9.80456,8.00386 -9.80456,8.76212 0,0.50551 0.41595,1.85353 0.77248,1.85353 0.35653,0 0.65364,-0.50552 0.89133,-0.84252 2.02033,-3.20155 3.74355,-4.04405 6.41753,-4.04405 2.25802,0 3.68414,1.85352 3.68414,5.81333 0,6.82434 -8.02192,16.51322 -9.32919,18.02974 -0.95075,1.09527 -2.07976,2.52753 -3.08993,3.95981 -0.23769,0.337 -0.41594,0.67401 -0.41594,1.01101 0,0.337 0.77247,1.76928 0.95073,1.76928 0.29711,0 5.16969,-0.50552 9.03209,-0.50552 3.38703,0 6.06101,0.50552 8.2596,0.50552 0.8319,0 3.0305,-6.15034 3.0305,-10.3629 0,-1.43227 -0.29711,-2.10627 -0.8319,-2.10627 -0.59421,0 -1.24785,1.76927 -2.55512,4.04405 -0.95075,1.60077 -2.43629,2.78029 -4.1001,2.52753 z" />
  <path
     inkscape:connector-curvature="0"
     id="path68"
     style="font-style:normal;font-variant:normal;font-weight:normal;font-stretch:normal;font-size:70.75547791px;line-height:125%;font-family:'EB Garamond SC';-inkscape-font-specification:'EB Garamond SC, Normal';font-variant-ligatures:normal;font-variant-position:normal;font-variant-caps:normal;font-variant-numeric:normal;font-feature-settings:normal;text-align:center;letter-spacing:0px;word-spacing:0px;writing-mode:lr-tb;text-anchor:middle;fill:#000000;fill-opacity:1;stroke:none;stroke-width:4.85263538px;stroke-linecap:butt;stroke-linejoin:miter;stroke-opacity:1"
     d="m 229.74704,854.57215 c 0,-6.48733 3.92183,-13.73293 8.49729,-13.73293 4.63488,0 9.6263,5.81333 9.6263,12.38492 0,6.99284 -4.10009,13.9857 -9.03209,13.9857 -4.6943,0 -9.0915,-5.98184 -9.0915,-12.63769 z m 8.7944,-18.36674 c -6.47696,0 -12.47854,8.76212 -12.47854,17.9455 0,9.77312 5.64505,18.6195 12.47854,18.6195 7.36828,0 13.31043,-9.68888 13.31043,-20.13603 0,-9.18337 -6.83348,-16.42897 -13.31043,-16.42897 z" />
  <path
     inkscape:connector-curvature="0"
     id="path70"
     style="font-style:normal;font-variant:normal;font-weight:normal;font-stretch:normal;font-size:70.75547791px;line-height:125%;font-family:'EB Garamond SC';-inkscape-font-specification:'EB Garamond SC, Normal';font-variant-ligatures:normal;font-variant-position:normal;font-variant-caps:normal;font-variant-numeric:normal;font-feature-settings:normal;text-align:center;letter-spacing:0px;word-spacing:0px;writing-mode:lr-tb;text-anchor:middle;fill:#000000;fill-opacity:1;stroke:none;stroke-width:4.85263538px;stroke-linecap:butt;stroke-linejoin:miter;stroke-opacity:1"
     d="m 279.11431,860.72249 v -28.89814 c 0,-4.80232 1.60438,-4.88657 4.99141,-6.23459 0.5348,-0.25275 0.89132,-0.674 0.89132,-1.43226 0,-1.01102 -1.18843,-1.51652 -2.07975,-1.51652 -2.02033,0 -4.45662,0.42125 -6.53637,0.42125 -2.13918,0 -4.27835,-0.42125 -6.5958,-0.42125 -1.30728,0 -2.13918,0.5055 -2.13918,1.51652 0,0.75826 0.41595,1.17951 0.95075,1.43226 3.38702,1.34802 4.87257,1.43227 4.87257,6.23459 v 29.74066 c 0,3.11729 -0.77248,5.81333 -2.79282,7.07709 -1.30727,0.84251 -3.26819,1.26377 -3.26819,2.52753 0,0.84252 1.30728,1.34802 1.96092,1.43228 0.41595,0 3.92182,-0.42126 6.71464,-0.42126 6.29868,0 17.52937,0.42126 19.72797,0.42126 1.01016,0 1.18843,-0.337 1.6638,-1.60078 0.47538,-1.09526 1.96092,-7.9196 1.96092,-10.19439 0,-2.35902 -0.47538,-3.9598 -1.06959,-3.9598 -0.5348,0 -1.30728,0.67401 -1.60439,1.60078 -1.72322,5.13931 -2.4957,10.19438 -7.07116,10.19438 h -6.47696 c -2.85223,0 -4.10009,-3.6228 -4.10009,-7.91961 z" />
  <path
     inkscape:connector-curvature="0"
     id="path72"
     style="font-style:normal;font-variant:normal;font-weight:normal;font-stretch:normal;font-size:70.75547791px;line-height:125%;font-family:'EB Garamond SC';-inkscape-font-specification:'EB Garamond SC, Normal';font-variant-ligatures:normal;font-variant-position:normal;font-variant-caps:normal;font-variant-numeric:normal;font-feature-settings:normal;text-align:center;letter-spacing:0px;word-spacing:0px;writing-mode:lr-tb;text-anchor:middle;fill:#000000;fill-opacity:1;stroke:none;stroke-width:4.85263538px;stroke-linecap:butt;stroke-linejoin:miter;stroke-opacity:1"
     d="m 315.52769,849.5171 4.15951,-16.76598 c 0.23768,-0.84252 0.47536,-1.09528 0.65363,-0.25276 l 3.62472,15.75496 c 0.59422,2.69604 0.53479,3.03304 -0.65364,3.03304 h -7.24943 c -1.06959,0 -0.89133,-0.42126 -0.53479,-1.76926 z m 16.93515,22.57929 c 1.96091,0 4.10008,0.50552 5.46678,0.50552 1.12902,0 1.72323,-0.42126 1.72323,-1.34802 0,-0.84252 -0.53479,-1.68502 -2.37686,-2.61179 -2.91166,-1.51652 -3.5653,-3.7913 -5.28853,-10.61564 l -7.84365,-31.42568 c -0.8319,-3.2858 -1.18843,-6.06609 -2.19859,-6.06609 -0.35654,0 -1.42612,2.35904 -2.55513,2.52754 -0.65364,0.0842 -0.65364,1.17951 -1.66381,4.80232 l -9.0915,35.63824 c -0.89132,3.45429 -0.83191,3.87555 -2.79282,5.13931 -1.30727,0.84251 -3.26819,1.26377 -3.26819,2.52753 0,0.92676 0.83191,1.43228 1.96092,1.43228 0.89132,0 2.25802,-0.50552 3.74356,-0.50552 1.12901,0 3.74356,0.50552 4.87257,0.50552 1.48554,0 2.07976,-0.50552 2.07976,-1.43228 0,-0.8425 -0.65364,-1.76927 -2.1986,-2.35903 -1.72323,-0.674 -1.66381,-2.02202 -1.30727,-3.53854 l 2.25801,-9.18338 c 0.23769,-0.84251 0.65364,-0.92677 0.95075,-0.92677 h 9.92341 c 0.47537,0 0.77248,0.25276 0.95074,1.01102 l 1.72322,8.00386 c 0.29711,1.43227 0.41596,3.03305 -1.72322,4.46531 -1.30728,0.84251 -3.20877,1.26377 -3.20877,2.52753 0,0.92676 1.12901,1.43228 1.90149,1.43228 1.78265,0 4.04068,-0.50552 7.9625,-0.50552 z" />
  <path
     inkscape:connector-curvature="0"
     id="path74"
     style="font-style:normal;font-variant:normal;font-weight:normal;font-stretch:normal;font-size:70.75547791px;line-height:125%;font-family:'EB Garamond SC';-inkscape-font-specification:'EB Garamond SC, Normal';font-variant-ligatures:normal;font-variant-position:normal;font-variant-caps:normal;font-variant-numeric:normal;font-feature-settings:normal;text-align:center;letter-spacing:0px;word-spacing:0px;writing-mode:lr-tb;text-anchor:middle;fill:#000000;fill-opacity:1;stroke:none;stroke-width:4.85263538px;stroke-linecap:butt;stroke-linejoin:miter;stroke-opacity:1"
     d="m 375.63075,825.67402 c 2.49571,1.17951 3.74356,2.78029 2.37686,8.59361 l -4.39719,18.87226 c -1.12901,4.80231 -1.78265,5.05507 -2.1986,5.05507 -0.41595,0 -0.8319,-0.42126 -1.78265,-4.12831 l -5.82332,-22.07379 c -0.95074,-3.70705 1.18844,-5.22358 3.74357,-6.4031 0.53479,-0.25275 0.89132,-0.674 0.89132,-1.43226 0,-1.01102 -1.18843,-1.51652 -2.07975,-1.51652 -2.02034,0 -5.28853,0.42125 -7.36828,0.42125 -2.13918,0 -2.37687,-0.42125 -4.69431,-0.42125 -0.89133,0 -2.07975,0.5055 -2.07975,1.51652 0,0.75826 0.41594,1.17951 0.95074,1.43226 3.74356,1.76928 4.33778,4.38107 5.34795,8.25662 l 9.03208,34.03746 c 0.89132,3.45431 1.78264,5.81333 2.25802,5.81333 0.77248,0 2.91166,-7.5826 3.92182,-11.45816 l 7.36828,-28.81389 c 0.95075,-3.7913 2.02033,-6.57159 4.75373,-7.83536 0.5348,-0.25275 1.01017,-0.674 1.01017,-1.43226 0,-1.01102 -1.18844,-1.51652 -2.07976,-1.51652 -0.89132,0 -2.91166,0.42125 -3.80298,0.42125 -0.89133,0 -3.38704,-0.42125 -4.27836,-0.42125 -0.89132,0 -2.07975,0.5055 -2.07975,1.51652 0,0.75826 0.47537,1.26376 1.01016,1.51652 z" />
  <path
     inkscape:connector-curvature="0"
     id="path76"
     style="font-style:normal;font-variant:normal;font-weight:normal;font-stretch:normal;font-size:70.75547791px;line-height:125%;font-family:'EB Garamond SC';-inkscape-font-specification:'EB Garamond SC, Normal';font-variant-ligatures:normal;font-variant-position:normal;font-variant-caps:normal;font-variant-numeric:normal;font-feature-settings:normal;text-align:center;letter-spacing:0px;word-spacing:0px;writing-mode:lr-tb;text-anchor:middle;fill:#000000;fill-opacity:1;stroke:none;stroke-width:4.85263538px;stroke-linecap:butt;stroke-linejoin:miter;stroke-opacity:1"
     d="m 398.18961,842.44 v -14.15419 c 0,-1.09528 0.23768,-1.76928 1.84207,-1.76928 h 7.07116 c 2.85224,0 4.33778,1.34802 4.81316,2.78028 0.53478,1.68503 1.42612,3.20155 2.13917,3.20155 0.71306,0 0.95075,-1.17952 0.95075,-2.19053 0,-0.92676 -0.29711,-5.56057 -0.5348,-6.90859 -0.11884,-0.75826 -0.59421,-1.17952 -1.54496,-1.17952 -1.06959,0 -4.57546,0.42126 -7.07117,0.42126 h -17.054 c -1.24785,0 -2.07975,0.5055 -2.07975,1.51652 0,0.75826 0.41595,1.17951 0.95074,1.43226 3.38703,1.34802 4.87258,1.43227 4.87258,6.23459 v 29.74066 c 0,3.11729 -0.77248,5.81333 -2.79282,7.07709 -1.30728,0.84251 -3.26819,1.26377 -3.26819,2.52753 0,0.84252 1.30728,1.34802 1.96091,1.43228 0.41596,0 3.92183,-0.42126 6.71464,-0.42126 6.29869,0 17.054,0.42126 19.25261,0.42126 1.01016,0 1.129,-0.337 1.60437,-1.60078 0.47538,-1.09526 2.25802,-7.32984 2.25802,-9.68888 0,-1.26377 -0.23768,-2.10627 -0.8319,-2.10627 -0.53479,0 -1.30728,0.674 -1.60438,1.60076 -1.72323,5.13932 -2.4957,7.83536 -7.07117,7.83536 h -6.47695 c -2.85224,0 -4.10009,-3.6228 -4.10009,-8.00386 v -9.43612 c 0,-1.60078 0.29711,-2.02204 1.42611,-2.02204 h 6.23927 c 1.24785,0 1.66381,0.84252 2.07976,1.76928 0.35653,0.84251 1.12901,3.20155 1.90149,3.20155 0.59422,0 0.77248,-1.34802 0.77248,-2.19053 0,-0.92677 -0.0595,-3.53855 -0.0595,-4.80232 0,-1.26377 0.23768,-4.21256 0.23768,-4.88656 0,-1.01102 -0.11884,-1.68503 -0.65364,-1.68503 -0.65363,0 -1.18843,1.26377 -1.84207,2.10627 -1.06959,1.43228 -1.72322,2.35904 -3.62471,2.35904 h -5.11026 c -0.8319,0 -1.3667,-0.58976 -1.3667,-2.61178 z" />
  <path
     inkscape:connector-curvature="0"
     id="path78"
     style="font-style:normal;font-variant:normal;font-weight:normal;font-stretch:normal;font-size:70.75547791px;line-height:125%;font-family:'EB Garamond SC';-inkscape-font-specification:'EB Garamond SC, Normal';font-variant-ligatures:normal;font-variant-position:normal;font-variant-caps:normal;font-variant-numeric:normal;font-feature-settings:normal;text-align:center;letter-spacing:0px;word-spacing:0px;writing-mode:lr-tb;text-anchor:middle;fill:#000000;fill-opacity:1;stroke:none;stroke-width:4.85263538px;stroke-linecap:butt;stroke-linejoin:miter;stroke-opacity:1"
     d="m 443.96559,851.70762 c -0.77249,-1.60078 -1.48554,-3.4543 -1.48554,-4.21256 0,-0.75825 0.23768,-0.67401 1.01016,-1.51651 2.79282,-2.86455 4.69431,-6.40309 4.69431,-11.79517 0,-8.50936 -6.65522,-12.04791 -12.6568,-12.04791 -5.28852,0 -7.7248,0.25275 -12.95391,0.84251 -1.24785,0.0843 -2.07975,0.5055 -2.07975,1.51652 0,0.75826 0.41595,1.17952 0.95074,1.43227 3.38703,1.34802 4.87258,1.43227 4.87258,6.23459 v 29.40365 c 0,3.11729 -0.77248,5.81333 -2.79282,7.07709 -1.30728,0.84251 -3.26819,1.26377 -3.26819,2.52753 0,0.84252 1.30728,1.34802 1.96091,1.43228 0.41596,0 3.98125,-0.50552 6.53638,-0.50552 2.85224,0 6.77406,0.50552 7.19002,0.50552 0.65363,-0.0843 1.90148,-0.58976 1.90148,-1.43228 0,-1.26376 -1.96091,-1.68502 -3.26818,-2.52753 -2.02034,-1.26376 -2.79282,-3.9598 -2.79282,-7.07709 v -7.16136 c 0,-1.85352 0.41595,-4.21255 1.66381,-4.21255 2.49571,0 4.21892,1.09526 4.93199,2.78029 3.08992,7.32985 5.88273,12.30067 9.38861,17.52424 1.6638,2.52753 4.63488,3.9598 7.54654,3.9598 2.07975,0 4.15951,-1.01101 4.15951,-2.52754 0,-0.674 -0.35653,-1.34801 -1.01017,-1.43226 -1.30727,-0.1685 -2.67396,-0.58976 -3.38702,-1.34802 -4.45662,-4.54956 -8.20019,-11.28965 -11.11184,-17.43999 z m -11.58721,-5.89757 c -0.23769,-0.50552 -0.59422,-1.51653 -0.59422,-3.70707 v -13.39593 c 0,-1.60076 1.30727,-2.86453 2.97108,-2.86453 3.98124,0 7.48712,3.9598 7.48712,9.60463 0,4.38106 -1.30727,7.24559 -3.62472,10.02588 -0.53479,0.84252 -2.61455,1.68503 -4.39719,1.68503 -0.65364,0 -1.3667,-0.42125 -1.84207,-1.34801 z" />
  <path
     inkscape:connector-curvature="0"
     id="path80"
     style="font-style:normal;font-variant:normal;font-weight:normal;font-stretch:normal;font-size:70.75547791px;line-height:125%;font-family:'EB Garamond SC';-inkscape-font-specification:'EB Garamond SC, Normal';font-variant-ligatures:normal;font-variant-position:normal;font-variant-caps:normal;font-variant-numeric:normal;font-feature-settings:normal;text-align:center;letter-spacing:0px;word-spacing:0px;writing-mode:lr-tb;text-anchor:middle;fill:#000000;fill-opacity:1;stroke:none;stroke-width:4.85263538px;stroke-linecap:butt;stroke-linejoin:miter;stroke-opacity:1"
     d="m 471.501,821.79846 c -5.82331,0 -10.57704,7.16135 -10.57704,15.50221 0,3.20155 0.89133,5.64483 2.61455,7.5826 l 8.91324,10.3629 c 1.30728,1.51652 2.37686,3.20155 2.37686,5.56057 0,4.88657 -1.96091,9.26763 -5.16968,9.26763 -3.44645,0 -5.76389,-2.44329 -6.41753,-5.47632 -0.53479,-2.52754 -0.95074,-3.79131 -1.90149,-3.79131 -1.18843,0 -1.60439,2.94879 -1.60439,5.64484 0,2.69603 0.5348,3.62279 2.7334,5.05507 1.42612,0.92676 4.3972,1.85352 6.23927,1.85352 6.12042,0 11.94374,-5.89759 11.94374,-14.40695 0,-3.20155 -1.06959,-6.48734 -2.85224,-8.59362 l -8.37844,-10.02588 c -1.72323,-2.10629 -3.0305,-3.28579 -3.0305,-6.06609 0,-4.1283 1.90148,-7.66685 4.87257,-7.66685 1.60438,0 3.50587,0.337 4.6943,3.03304 1.24785,2.78028 1.6638,3.87556 2.37687,3.87556 0.89132,0 1.18843,-1.17952 1.18843,-2.27479 0,-2.94878 -0.0595,-5.56057 -2.02034,-7.16135 -1.36669,-1.09526 -4.10009,-2.27478 -6.00158,-2.27478 z" />
  <path
     inkscape:connector-curvature="0"
     id="path82"
     style="font-style:normal;font-variant:normal;font-weight:normal;font-stretch:normal;font-size:70.75547791px;line-height:125%;font-family:'EB Garamond SC';-inkscape-font-specification:'EB Garamond SC, Normal';font-variant-ligatures:normal;font-variant-position:normal;font-variant-caps:normal;font-variant-numeric:normal;font-feature-settings:normal;text-align:center;letter-spacing:0px;word-spacing:0px;writing-mode:lr-tb;text-anchor:middle;fill:#000000;fill-opacity:1;stroke:none;stroke-width:4.85263538px;stroke-linecap:butt;stroke-linejoin:miter;stroke-opacity:1"
     d="m 496.11361,849.5171 4.1595,-16.76598 c 0.2377,-0.84252 0.47538,-1.09528 0.65364,-0.25276 l 3.62472,15.75496 c 0.59422,2.69604 0.5348,3.03304 -0.65363,3.03304 h -7.24944 c -1.06959,0 -0.89132,-0.42126 -0.53479,-1.76926 z m 16.93515,22.57929 c 1.96091,0 4.10009,0.50552 5.46678,0.50552 1.12902,0 1.72323,-0.42126 1.72323,-1.34802 0,-0.84252 -0.5348,-1.68502 -2.37687,-2.61179 -2.91165,-1.51652 -3.56528,-3.7913 -5.28851,-10.61564 l -7.84366,-31.42568 c -0.83189,-3.2858 -1.18843,-6.06609 -2.19859,-6.06609 -0.35653,0 -1.42612,2.35904 -2.55513,2.52754 -0.65363,0.0842 -0.65363,1.17951 -1.66381,4.80232 l -9.0915,35.63824 c -0.89133,3.45429 -0.8319,3.87555 -2.79281,5.13931 -1.30728,0.84251 -3.26819,1.26377 -3.26819,2.52753 0,0.92676 0.8319,1.43228 1.96091,1.43228 0.89133,0 2.25802,-0.50552 3.74356,-0.50552 1.12901,0 3.74356,0.50552 4.87257,0.50552 1.48554,0 2.07976,-0.50552 2.07976,-1.43228 0,-0.8425 -0.65364,-1.76927 -2.1986,-2.35903 -1.72323,-0.674 -1.6638,-2.02202 -1.30728,-3.53854 l 2.25803,-9.18338 c 0.23768,-0.84251 0.65363,-0.92677 0.95074,-0.92677 h 9.92341 c 0.47537,0 0.77248,0.25276 0.95074,1.01102 l 1.72323,8.00386 c 0.2971,1.43227 0.41594,3.03305 -1.72323,4.46531 -1.30727,0.84251 -3.20877,1.26377 -3.20877,2.52753 0,0.92676 1.12902,1.43228 1.9015,1.43228 1.78264,0 4.04066,-0.50552 7.96249,-0.50552 z" />
  <path
     inkscape:connector-curvature="0"
     id="path84"
     style="font-style:normal;font-variant:normal;font-weight:normal;font-stretch:normal;font-size:70.75547791px;line-height:125%;font-family:'EB Garamond SC';-inkscape-font-specification:'EB Garamond SC, Normal';font-variant-ligatures:normal;font-variant-position:normal;font-variant-caps:normal;font-variant-numeric:normal;font-feature-settings:normal;text-align:center;letter-spacing:0px;word-spacing:0px;writing-mode:lr-tb;text-anchor:middle;fill:#000000;fill-opacity:1;stroke:none;stroke-width:4.85263538px;stroke-linecap:butt;stroke-linejoin:miter;stroke-opacity:1"
     d="m 530.42587,861.56501 v -17.10299 c 0,-4.54956 0.0595,-5.72907 0.41596,-5.72907 0.29711,0 0.77248,0.5055 1.72322,2.02203 L 550.035,868.3051 c 2.25802,3.53855 4.3972,5.05507 5.05084,5.05507 0.59421,0 1.18843,-0.1685 1.18843,-1.01102 0,-2.27478 -0.17827,-2.94879 -0.17827,-6.90859 v -33.61621 c 0,-4.88657 1.54496,-4.88657 4.932,-6.23459 0.53479,-0.25275 0.89132,-0.674 0.89132,-1.43226 0,-1.01102 -1.18843,-1.51652 -2.07975,-1.51652 -2.02034,0 -3.2682,0.42125 -5.34795,0.42125 -2.13917,0 -3.08992,-0.42125 -5.40737,-0.42125 -0.89132,0 -2.07975,0.5055 -2.07975,1.51652 0,0.75826 0.41595,1.17951 0.95075,1.43226 3.38703,1.34802 4.87257,1.34802 4.87257,6.23459 v 20.55728 c 0,5.05507 -0.0595,5.89759 -0.5348,5.89759 -0.47537,0 -1.18843,-0.84252 -5.16968,-7.16136 l -15.74672,-25.02259 c -0.59421,-0.92677 -1.84207,-3.03304 -3.14934,-3.03304 h -5.7639 c -0.53479,0 -0.89132,0.25275 -0.89132,0.92677 0,0.8425 1.18843,2.35902 2.73339,4.80231 l 2.1986,3.45429 c 0.65364,1.09526 0.8319,3.2858 0.8319,7.32986 v 21.98955 c 0,3.20154 -0.77248,5.81333 -2.79281,7.07709 -1.30728,0.84251 -3.26819,1.26377 -3.26819,2.52753 0,0.84252 1.30728,1.34802 1.96091,1.43228 0.41596,0 2.67398,-0.50552 5.46679,-0.50552 2.85224,0 5.46679,0.50552 5.88274,0.50552 0.65364,-0.0843 1.90149,-0.58976 1.90149,-1.43228 0,-1.26376 -1.96092,-1.68502 -3.26819,-2.52753 -2.02033,-1.26376 -2.79282,-3.87555 -2.79282,-7.07709 z" />
  <path
     inkscape:connector-curvature="0"
     id="path86"
     style="font-style:normal;font-variant:normal;font-weight:normal;font-stretch:normal;font-size:70.75547791px;line-height:125%;font-family:'EB Garamond SC';-inkscape-font-specification:'EB Garamond SC, Normal';font-variant-ligatures:normal;font-variant-position:normal;font-variant-caps:normal;font-variant-numeric:normal;font-feature-settings:normal;text-align:center;letter-spacing:0px;word-spacing:0px;writing-mode:lr-tb;text-anchor:middle;fill:#000000;fill-opacity:1;stroke:none;stroke-width:4.85263538px;stroke-linecap:butt;stroke-linejoin:miter;stroke-opacity:1"
     d="m 571.16216,861.56501 v -17.10299 c 0,-4.54956 0.0595,-5.72907 0.41596,-5.72907 0.29711,0 0.77248,0.5055 1.72322,2.02203 l 17.46995,27.55012 c 2.25802,3.53855 4.39719,5.05507 5.05083,5.05507 0.59422,0 1.18843,-0.1685 1.18843,-1.01102 0,-2.27478 -0.17826,-2.94879 -0.17826,-6.90859 v -33.61621 c 0,-4.88657 1.54496,-4.88657 4.93199,-6.23459 0.5348,-0.25275 0.89132,-0.674 0.89132,-1.43226 0,-1.01102 -1.18843,-1.51652 -2.07975,-1.51652 -2.02034,0 -3.26819,0.42125 -5.34794,0.42125 -2.13918,0 -3.08993,-0.42125 -5.40737,-0.42125 -0.89132,0 -2.07975,0.5055 -2.07975,1.51652 0,0.75826 0.41595,1.17951 0.95075,1.43226 3.38703,1.34802 4.87256,1.34802 4.87256,6.23459 v 20.55728 c 0,5.05507 -0.0595,5.89759 -0.53479,5.89759 -0.47537,0 -1.18843,-0.84252 -5.16968,-7.16136 l -15.74672,-25.02259 c -0.59422,-0.92677 -1.84207,-3.03304 -3.14934,-3.03304 h -5.7639 c -0.53479,0 -0.89133,0.25275 -0.89133,0.92677 0,0.8425 1.18843,2.35902 2.7334,4.80231 l 2.1986,3.45429 c 0.65364,1.09526 0.8319,3.2858 0.8319,7.32986 v 21.98955 c 0,3.20154 -0.77248,5.81333 -2.79281,7.07709 -1.30728,0.84251 -3.26819,1.26377 -3.26819,2.52753 0,0.84252 1.30728,1.34802 1.96091,1.43228 0.41596,0 2.67397,-0.50552 5.46679,-0.50552 2.85223,0 5.46678,0.50552 5.88273,0.50552 0.65364,-0.0843 1.9015,-0.58976 1.9015,-1.43228 0,-1.26376 -1.96092,-1.68502 -3.26819,-2.52753 -2.02034,-1.26376 -2.79282,-3.87555 -2.79282,-7.07709 z" />
  <path
     inkscape:connector-curvature="0"
     id="path88"
     style="font-style:normal;font-variant:normal;font-weight:normal;font-stretch:normal;font-size:70.75547791px;line-height:125%;font-family:'EB Garamond SC';-inkscape-font-specification:'EB Garamond SC, Normal';font-variant-ligatures:normal;font-variant-position:normal;font-variant-caps:normal;font-variant-numeric:normal;font-feature-settings:normal;text-align:center;letter-spacing:0px;word-spacing:0px;writing-mode:lr-tb;text-anchor:middle;fill:#000000;fill-opacity:1;stroke:none;stroke-width:4.85263538px;stroke-linecap:butt;stroke-linejoin:miter;stroke-opacity:1"
     d="m 614.8695,842.44 v -14.15419 c 0,-1.09528 0.23769,-1.76928 1.84207,-1.76928 h 7.07117 c 2.85224,0 4.33778,1.34802 4.81315,2.78028 0.53479,1.68503 1.42612,3.20155 2.13918,3.20155 0.71306,0 0.95075,-1.17952 0.95075,-2.19053 0,-0.92676 -0.29711,-5.56057 -0.5348,-6.90859 -0.11884,-0.75826 -0.59422,-1.17952 -1.54496,-1.17952 -1.06959,0 -4.57547,0.42126 -7.07118,0.42126 h -17.05399 c -1.24785,0 -2.07976,0.5055 -2.07976,1.51652 0,0.75826 0.41596,1.17951 0.95075,1.43226 3.38703,1.34802 4.87257,1.43227 4.87257,6.23459 v 29.74066 c 0,3.11729 -0.77248,5.81333 -2.79281,7.07709 -1.30728,0.84251 -3.26819,1.26377 -3.26819,2.52753 0,0.84252 1.30727,1.34802 1.96091,1.43228 0.41595,0 3.92183,-0.42126 6.71464,-0.42126 6.29869,0 17.054,0.42126 19.25259,0.42126 1.01018,0 1.12902,-0.337 1.60439,-1.60078 0.47538,-1.09526 2.25802,-7.32984 2.25802,-9.68888 0,-1.26377 -0.23768,-2.10627 -0.8319,-2.10627 -0.5348,0 -1.30728,0.674 -1.60439,1.60076 -1.72322,5.13932 -2.4957,7.83536 -7.07117,7.83536 h -6.47694 c -2.85225,0 -4.1001,-3.6228 -4.1001,-8.00386 v -9.43612 c 0,-1.60078 0.29711,-2.02204 1.42612,-2.02204 h 6.23926 c 1.24786,0 1.66381,0.84252 2.07977,1.76928 0.35652,0.84251 1.129,3.20155 1.90148,3.20155 0.59422,0 0.77248,-1.34802 0.77248,-2.19053 0,-0.92677 -0.0595,-3.53855 -0.0595,-4.80232 0,-1.26377 0.23769,-4.21256 0.23769,-4.88656 0,-1.01102 -0.11884,-1.68503 -0.65364,-1.68503 -0.65364,0 -1.18843,1.26377 -1.84207,2.10627 -1.06959,1.43228 -1.72322,2.35904 -3.62471,2.35904 h -5.11027 c -0.83189,0 -1.36669,-0.58976 -1.36669,-2.61178 z" />
  <path
     style="color:#000000;display:inline;overflow:visible;visibility:visible;opacity:1;fill:none;fill-opacity:1;fill-rule:nonzero;stroke:#000000;stroke-width:41.23534012;stroke-linecap:round;stroke-linejoin:miter;stroke-miterlimit:4;stroke-dasharray:none;stroke-dashoffset:0;stroke-opacity:1;marker:none;enable-background:accumulate"
     id="path827"
     sodipodi:type="arc"
     sodipodi:cx="377.49829"
     sodipodi:cy="525.82959"
     sodipodi:rx="522.72607"
     sodipodi:ry="505.81393"
     sodipodi:start="0"
     sodipodi:end="6.2811121"
     d="M 900.22437,525.82959 A 522.72607,505.81393 0 0 1 377.76922,1031.6435 522.72607,505.81393 0 0 1 -145.2275,526.35392 522.72607,505.81393 0 0 1 376.6855,20.016267 522.72607,505.81393 0 0 1 900.22324,524.78093"
     sodipodi:open="true" />
</svg>
