<?xml version="1.0" encoding="UTF-8" standalone="no"?>
<svg
   xmlns:dc="http://purl.org/dc/elements/1.1/"
   xmlns:cc="http://creativecommons.org/ns#"
   xmlns:rdf="http://www.w3.org/1999/02/22-rdf-syntax-ns#"
   xmlns:svg="http://www.w3.org/2000/svg"
   xmlns="http://www.w3.org/2000/svg"
   xmlns:sodipodi="http://sodipodi.sourceforge.net/DTD/sodipodi-0.dtd"
   xmlns:inkscape="http://www.inkscape.org/namespaces/inkscape"
   width="332.9483"
   height="322.58432"
   viewBox="-0.952 -0.602 756.90268 1052.8632"
   version="1.1"
   id="svg4"
   sodipodi:docname="logo_ferme.svg"
   inkscape:version="0.92.3 (2405546, 2018-03-11)">
  <metadata
     id="metadata10">
    <rdf:RDF>
      <cc:Work
         rdf:about="">
        <dc:format>image/svg+xml</dc:format>
        <dc:type
           rdf:resource="http://purl.org/dc/dcmitype/StillImage" />
        <dc:title></dc:title>
      </cc:Work>
    </rdf:RDF>
  </metadata>
  <defs
     id="defs8" />
  <sodipodi:namedview
     pagecolor="#ffffff"
     bordercolor="#666666"
     borderopacity="1"
     objecttolerance="10"
     gridtolerance="10"
     guidetolerance="10"
     inkscape:pageopacity="0"
     inkscape:pageshadow="2"
     inkscape:window-width="1020"
     inkscape:window-height="751"
     id="namedview6"
     showgrid="false"
     fit-margin-top="0"
     fit-margin-left="0"
     fit-margin-right="0"
     fit-margin-bottom="0"
     inkscape:zoom="1.1639359"
     inkscape:cx="12.742658"
     inkscape:cy="143.43144"
     inkscape:window-x="0"
     inkscape:window-y="13"
     inkscape:window-maximized="0"
     inkscape:current-layer="svg4"
     inkscape:pagecheckerboard="true" />
  <path
     d="m 68.979966,476.58066 c 0.46509,-2.3255 0.46509,-4.8835 0.23254,-7.209 v -8.8368 c 0.23255,-2.7906 0,-5.5811 -0.46509,-8.3717 -1.3953,-7.4415 -2.3255,-14.418 -2.790597,-21.627 -0.46509,-5.116 -0.69764,-10.232 -0.93019,-15.348 l -0.46509,-7.9066 -1.3953,-10.93 -1.3953,-13.953 c -0.23255,-0.93019 -0.23255,-1.8604 -0.23255,-2.558 0,-0.93019 0,-1.8604 0.23255,-2.558 l 1.3953,-13.488 c -1.3953,6.2788 -2.7906,12.558 -3.4882,18.836 l -3.4882,22.79 -0.23255,3.0231 -0.69764,6.5113 -0.4651,4.8835 v 7.4415 l 0.23255,6.5113 -0.69764,11.162 -0.69764,13.953 -0.69765,10.465 0.23255,17.674 0.4651,6.2788 0.46509,5.5811 1.1627,6.9764 c 0,1.3953 -0.23255,3.0231 -0.23255,4.4184 0,1.8604 0.23255,3.9533 0.23255,6.0462 v 0.69764 c 0,1.3953 -0.23255,2.7906 -0.4651,3.9533 -0.93019,2.558 -1.3953,5.116 -1.6278,7.9066 -0.46509,2.7906 -0.69764,5.5811 -1.3953,8.3717 -0.69766,2.7906 -1.1627,5.5811 -1.1627,8.6043 l -0.23255,5.8137 c 0,1.1627 -0.69764,2.3255 -1.6278,2.7906 -1.3953,0.93019 -3.2557,1.6278 -5.116,1.6278 -0.23254,0 -0.46509,0.23254 -0.69764,0.23254 -1.3953,0 -2.558,-0.46509 -3.7208,-0.93019 -2.3255,-0.69764 -3.4882,-2.7906 -3.4882,-5.116 v -11.627 c 0,-5.116 0.4651,-10.232 1.3953,-15.348 0.69764,-4.1858 0.69764,-8.6042 0.23254,-13.023 -0.23254,-1.1627 -0.46509,-2.558 -0.93019,-3.9533 -0.23254,-1.3953 -0.23254,-2.7906 -0.23254,-4.4184 0,-1.1627 0.23254,-2.3255 0.93019,-3.0231 1.3953,-1.8604 2.3255,-3.4882 3.0231,-5.5811 1.1627,-2.558 2.0929,-5.116 2.7906,-7.9066 0.69764,-2.0929 1.1627,-4.4184 0.93019,-6.7439 -0.23255,-3.7208 -0.23255,-7.4415 -0.23255,-11.162 v -0.23254 c 0,-4.8835 -0.46509,-9.767 -1.1627,-14.65 -0.69765,-4.1859 -1.1627,-8.6043 -1.1627,-13.023 v -29.301 l -0.46509,-37.208 0.46509,-16.511 c 0.23255,-2.7906 0.23255,-5.5811 0.46509,-8.3717 0.23255,-9.0694 1.8604,-17.674 4.8835,-26.045 3.0231,-8.1392 7.209,-15.348 13.023,-21.859 5.3486,-5.8137 11.161997,-11.162 17.673997,-15.813 4.1858,-3.0231 8.6042,-5.5811 13.255,-7.4415 6.7439,-2.7906 13.953004,-5.3486 21.162004,-7.209 4.8835,-1.3953 9.767,-2.0929 14.883,-2.3255 3.4882,-0.23255 7.9066,-0.23255 12.092,-0.46509 h 4.8835 c 6.9764,0 13.72,0.46509 20.464,1.6278 3.2557,0.69764 6.2788,1.1627 9.5344,1.6278 4.651,0.69764 9.0694,1.1627 13.488,1.6278 10.93,1.1627 22.092,2.0929 33.254,2.7906 19.534,0.93019 40.928,2.7906 62.555,4.8835 9.0694,1.1627 16.511,1.8604 23.952,2.3255 1.8604,0.23255 5.116,0.4651 8.1392,0.69764 3.4882,0.23255 6.0462,0.23255 8.6043,-0.23255 2.0929,-0.23255 4.1858,-0.4651 6.5113,-0.69764 7.9066,-1.1627 15.581,-1.6278 23.255,-1.6278 20.464,0 41.161,-1.3953 61.625,-4.4184 22.557,-3.2557 44.649,-5.116 67.206,-5.116 h 2.0929 c 5.8137,0 11.627,0 17.209,0.46509 6.0462,0.4651 12.558,1.1627 19.069,1.8604 5.8137,0.69764 12.092,1.1627 18.604,1.6278 8.1392,0.69764 15.581,0.93019 23.022,0.69764 5.3486,-0.23255 10.697,-0.69764 16.278,-1.1627 6.0462,-0.46509 12.092,-1.6278 18.139,-3.2557 7.209,-1.8604 14.418,-4.1859 21.394,-7.209 2.7906,-0.93019 5.3486,-2.3255 7.9066,-3.7208 l 4.1858,-2.558 -1.8604,-4.4184 c -0.69764,-0.69764 -0.93019,-1.6278 -0.93019,-2.7906 v -0.69764 c 0.4651,-1.8604 1.3953,-3.2557 3.2557,-3.9533 2.0929,-0.69764 4.4184,-1.6278 6.9764,-2.3255 1.6278,-0.69764 3.4882,-1.3953 5.116,-2.0929 2.3255,-1.1627 4.8835,-2.0929 7.4415,-2.558 2.558,-0.4651 4.8835,-1.8604 6.5113,-3.9533 l 9.3019,-11.395 c 0.46509,-0.46509 0.93019,-0.69764 1.3953,-0.93019 h 0.69764 c 0.69764,0 1.1627,0.46509 1.6278,1.1627 0.23255,0.69764 0.23255,1.3953 0.23255,2.0929 0,0.6976 0,1.3953 -0.23255,1.8604 l -1.1627,2.7906 -2.3255,6.2788 -2.7906,7.4415 h 0.23255 c 3.9533,0.23255 7.4415,1.1627 10.697,2.7906 1.6278,0.93019 4.1858,2.3255 6.5113,3.7208 3.2557,1.6278 5.116,3.2557 6.7439,5.3486 0.69764,0.69764 1.3953,1.3953 2.3255,1.8604 1.1627,0.69764 2.558,0.93019 3.9533,0.4651 2.0929,-0.4651 4.1858,-1.8604 5.5811,-3.7208 l 10.232,-13.255 c 0.69764,-0.69764 1.3953,-1.1627 2.3255,-1.1627 0.23255,-0.23255 0.46509,-0.23255 0.46509,-0.23255 0.93019,0 1.6278,0.46509 2.0929,1.1627 0.46509,0.93019 0.69764,1.8604 0.69764,2.7906 0,0.46509 0,1.1627 -0.23255,1.8604 l -1.6278,3.7208 -3.0231,7.4415 -2.3255,4.651 -2.558,3.4882 -1.8604,2.7906 -3.9533,6.7439 c -0.23255,0.46509 -0.46509,0.93019 -0.46509,1.3953 0,0.69764 0.23255,1.1627 0.69764,1.6278 1.6278,2.0929 3.4882,4.1858 5.5811,6.2788 1.6278,1.6278 3.7208,2.7906 5.8137,3.2557 2.558,0.69764 4.651,2.7906 5.3486,5.3486 0.69764,2.3255 1.3953,4.8835 1.6278,7.209 0.46509,3.9533 2.3255,7.4415 4.8835,10.232 2.0929,1.8604 3.7208,3.9533 5.116,6.2788 2.3255,3.4882 4.651,6.9764 7.4415,10.232 2.0929,2.558 3.7208,5.5811 5.116,8.3717 1.3953,3.4882 3.2557,6.7439 5.8137,9.3019 l 14.65,15.813 c 0.23254,1.1627 0.46509,2.3255 0.46509,3.4882 0,0.93019 0,1.6278 -0.23255,2.3255 -0.46509,3.2557 -1.3953,6.5113 -2.3255,9.5344 -0.93019,2.558 -2.3255,4.651 -3.9533,6.7439 -1.6278,1.8604 -3.2557,3.7208 -5.3486,5.3486 -2.0929,1.6278 -4.651,3.0231 -7.209,3.9533 -1.1627,0.23255 -2.3255,0.4651 -3.4882,0.4651 -1.8604,0 -3.7208,-0.4651 -5.3486,-1.3953 -1.6278,-0.9302 -3.2557,-1.3953 -5.116,-1.8604 -2.558,-0.69764 -5.3486,-0.69764 -8.1392,-0.23255 -3.9533,0.69765 -7.4415,1.3953 -10.697,2.0929 1.1627,-0.23255 -0.69764,-0.23255 -2.558,-0.23255 -1.86036,0 -3.9533,-0.23254 -6.0462,-0.46509 -3.4882,-0.93019 -6.9764,-1.6278 -10.232,-2.0929 -1.8604,-0.46509 -4.8835,-1.3953 -7.6741,-2.558 -2.0929,-0.93019 -4.4184,-0.93019 -6.7439,-0.23255 -2.558,0.93019 -5.116,2.0929 -7.6741,3.4882 -5.8137,3.2557 -12.092,5.3486 -18.604,6.5113 -2.3255,0.4651 -4.651,0.93019 -6.7439,1.3953 -3.0231,0.46509 -6.7439,0.93019 -10.232,0.93019 -2.558,0.23254 -5.116,0.69764 -7.6741,1.8604 -4.651,2.3255 -8.8368,5.8137 -11.86,10.232 -3.9533,5.8137 -7.4415,11.86 -10.465,18.371 -2.3255,4.8835 -5.116,9.9995 -7.9066,14.883 -2.0929,3.4882 -3.9533,7.6741 -5.5811,11.86 -2.3255,5.8137 -4.651,10.93 -7.209,16.278 -1.6278,3.7208 -3.2557,7.4415 -4.651,11.395 -0.4651,1.1627 -1.1627,2.3255 -1.8604,3.2557 -6.5113,8.8368 -15.348,15.348 -25.58,18.604 l -6.2788,2.0929 6.5113,5.8137 13.255,11.86 6.9764,6.7439 5.5811,6.0462 c 1.6278,2.558 3.2557,5.3486 5.3486,7.9066 1.6278,2.558 3.0231,4.651 3.9533,6.9764 0.93019,2.0929 1.3953,4.1859 1.3953,6.5113 0,0.93019 -0.23255,1.8604 -0.23255,2.7906 -0.69764,3.4882 -2.0929,6.7439 -3.7208,9.767 l -3.4882,5.8137 -4.1858,5.5811 -12.558,11.86 -5.5811,5.5811 -5.116,5.3486 -2.7906,3.4882 -8.3717,10.465 -14.65,15.581 -7.6741,7.209 -6.0462,4.651 -4.8835,3.2557 -3.4882,1.6278 -1.8604,0.23255 c -2.0929,5.3486 -5.5811,10.232 -9.767,13.953 -1.6278,1.6278 -3.7208,2.7906 -6.0462,3.2557 -2.0929,0.4651 -3.9533,0.93019 -6.0462,1.3953 h -1.3953 c -0.93019,0 -1.6278,0 -2.558,-0.23255 l -1.3953,-0.4651 10.93,-37.44 c 0.46509,-1.3953 1.3953,-2.558 3.0231,-2.7906 l 9.9995,-2.3255 c 0.93019,-0.4651 1.3953,-1.3953 1.1627,-2.0929 l -2.0929,-6.2788 c -0.23254,-0.46509 -0.46509,-1.3953 -0.46509,-2.0929 0,-2.0929 1.1627,-3.9533 3.0231,-4.8835 1.6278,-0.93019 3.4882,-1.6278 5.3486,-2.3255 2.558,-0.46509 4.8835,-1.8604 6.9764,-3.2557 2.7906,-2.0929 5.5811,-4.1859 8.3717,-6.5113 3.7208,-3.0231 6.9764,-6.9764 9.3019,-11.162 2.0929,-3.9533 4.1858,-7.9066 6.5113,-11.627 2.0929,-3.7208 3.0231,-6.9764 3.4882,-10.465 0.46509,-3.7208 -0.4651,-7.4415 -2.7906,-10.697 -2.3255,-3.2555 -5.5811,-6.0462 -9.0694,-7.6741 l -13.255,-6.2788 c -3.9533,-1.8604 -7.9066,-3.7208 -12.092,-5.3486 -3.9533,-1.3953 -7.4415,-3.4882 -10.93,-5.8137 -2.3255,-1.8604 -4.6509,-3.2557 -7.209,-4.651 -5.116,-3.2557 -9.0694,-7.4415 -12.092,-12.79 l -1.3953,-2.558 -5.8137,11.86 -2.3255,5.116 -1.8604,3.9533 -3.7208,5.3486 -4.651,6.7439 -6.9764,9.9995 -5.8137,9.3019 -6.2788,10.232 -3.0231,4.8835 -8.8368,15.581 -3.4882,6.7439 -4.4184,8.8368 -2.3255,5.3486 -1.6278,4.8835 c -1.1627,2.558 -1.8604,5.116 -2.3255,7.9066 -0.23255,2.0929 -0.69765,4.1858 -1.1627,6.5113 0,0.93019 -0.23255,1.8604 -0.23255,2.7906 0,3.2557 1.1627,6.2788 3.4882,8.6043 l 7.4415,8.3717 1.1627,1.8604 c 7.209,1.8604 12.558,7.9066 13.72,15.348 l 0.23255,1.6278 h -39.766 c -3.2557,-3.4882 -5.116,-7.9066 -5.116,-12.558 0,-2.7906 0.69764,-5.5811 1.8604,-8.1392 l 1.1627,-2.0929 c 0.23255,-0.93019 -0.23254,-1.6278 -0.93019,-1.6278 h -4.6509 c -3.0231,-0.46509 -4.8835,-3.0231 -4.8835,-5.8137 0,-0.46509 0,-0.69764 0.23255,-1.1627 l 1.8604,-9.3019 3.2557,-11.395 3.7208,-13.72 3.7208,-12.79 2.3255,-9.3019 2.0929,-8.6043 1.3953,-5.5811 1.3953,-5.5811 0.93019,-5.116 1.1627,-5.3486 0.93019,-3.9533 2.558,-9.767 c 1.3953,-4.4184 3.0231,-9.0694 4.1858,-13.488 1.8604,-6.7439 4.4184,-13.488 7.6741,-19.534 l 2.0929,-3.9533 -18.139,-0.4651 h -3.9533 c -5.116,0 -10.697,0 -16.046,-0.46509 -8.6042,-0.4651 -17.674,0.23255 -26.51,2.3255 -12.558,2.558 -25.115,3.9533 -37.905,4.1859 -1.3953,0.23254 -2.558,0.23254 -3.9533,0.23254 -13.953,0 -27.673,-1.3953 -41.161,-4.1858 -9.5344,-1.8604 -16.511,-3.2557 -23.487,-4.651 l -1.3953,-0.23255 c -5.116,4.1859 -10.7,7.9066 -16.743,10.697 l -0.69764,0.46509 3.2557,18.371 c -0.23255,3.7208 -3.2557,6.7439 -6.9764,6.7439 -3.0231,0 -5.8137,-1.6278 -6.7439,-4.4184 l -5.8137,-15.348 -8.6043,1.8604 2.0929,15.116 v 1.3953 c 0,1.3953 -0.23255,2.7906 -0.93019,3.9533 -1.1627,1.8604 -2.7906,2.7906 -4.8835,3.0231 h -0.93019 c -1.3953,0 -2.7906,-0.23255 -4.1858,-0.4651 -1.8604,-0.46509 -3.4882,-1.8604 -3.7208,-3.9533 l -3.2557,-16.976 -7.9066,0.46509 c -0.4651,3.0231 -0.69764,6.2788 -0.69764,9.5344 v 1.3953 c 0,4.6509 0.46509,9.0694 0.93019,13.72 0.46509,3.9533 1.3953,7.6741 2.7906,11.162 3.2557,7.4415 6.9764,15.116 11.162,22.325 l 2.7906,4.8835 5.116,9.0694 c 2.0929,4.8835 5.116,9.3019 8.6042,13.255 l 2.7906,3.2557 3.2557,3.2557 8.3717,6.9764 6.5113,5.5811 8.1392,6.7439 c 0.93019,0.69764 1.8604,1.6278 2.7906,2.3255 5.3486,4.8835 9.5344,10.93 12.325,17.441 l 0.69764,2.0929 c 3.4882,1.3953 6.7439,3.2557 9.5344,5.3486 3.4882,3.0231 6.2788,6.5113 8.1392,10.697 l 0.93019,2.0929 h -39.533 l -0.93019,-0.23254 -11.395,-21.162 c -0.23255,-0.69765 -0.93019,-1.1627 -1.6278,-1.1627 -0.46509,0 -0.93019,0.23255 -1.1627,0.46509 l -3.0231,2.558 c -0.4651,0.46509 -1.1627,0.93019 -1.6278,0.93019 -0.4651,0 -0.69764,-0.23255 -0.93019,-0.23255 -1.1627,-0.69764 -2.3255,-1.3953 -3.2557,-2.3255 l -1.1627,-1.3953 -4.4184,-5.116 -3.4882,-4.651 -12.558,-21.162 c -1.8604,-2.7906 -3.4882,-5.116 -5.116,-7.4415 -1.6278,-2.3255 -4.1859,-5.116 -7.209,-7.4415 l -6.5113,-4.8835 -24.65,-18.371 c -0.93019,-1.1627 -1.8604,-2.558 -2.0929,-4.1859 l -6.9764,-30.231 -1.3953,-5.3486 -3.2557,-7.9066 -3.4882,-6.0462 -2.7906,-2.7906 c -3.7208,7.209 -8.60431,13.953 -13.953,19.767 -3.2557,3.4882 -6.2788,6.5113 -9.3019,9.5344 -3.7208,3.9533 -6.976404,8.1392 -9.534404,13.023 -5.116,9.767 -8.8368,20.697 -10.93,31.626 -1.1627,6.0462 -2.0929,12.092 -3.2557,18.139 -0.23255,2.3255 -0.4651,5.116 -0.4651,7.9066 0,2.7906 0.23255,5.5811 0.69765,8.3717 0.23254,1.8604 0.93019,3.4882 2.0929,4.8835 1.16271,1.3953 2.3255,3.0231 3.2557,4.651 0.69764,1.1627 0.93019,2.558 1.1627,4.1859 l 0.23254,4.4184 4.4184,4.651 4.6509,4.1858 c 1.6278,2.3255 2.558,4.651 3.0231,7.209 l 0.930194,5.3486 H 61.071279 l -3.7208,-6.2788 c -0.93019,-1.3953 -1.1627,-3.0231 -1.1627,-4.651 0,-0.69764 0,-1.6278 0.23254,-2.3255 0.23255,-1.3953 0.93019,-3.0231 1.8604,-4.4184 0.4651,-0.93019 0.93019,-2.0929 1.3953,-3.2557 0.46509,-1.3953 0.69764,-2.7906 0.93019,-4.1858 0,-0.93019 -0.23255,-1.8604 -0.69764,-2.558 -0.69765,-0.93019 -1.6278,-1.3953 -2.558,-1.6278 l -4.4184,-0.93019 c -0.69764,0 -1.1627,-0.4651 -1.6278,-0.93019 -0.93019,-1.1627 -1.3953,-2.558 -1.3953,-3.9533 0,-0.93019 0.23254,-1.8604 0.46509,-2.558 0.4651,-0.93019 0.69764,-1.8604 0.93019,-2.7906 1.1627,-8.6043 2.7906,-17.906 4.651,-26.976 l 1.3953,-7.6741 2.558,-19.069 c 0.46509,-2.558 1.1627,-5.5811 1.3953,-8.6043 0.4651,-3.2557 0.4651,-6.2788 -0.23255,-9.3019 -1.1627,-5.5811 -2.0929,-11.395 -2.7906,-17.209 -0.69764,-5.3486 -1.3953,-10.465 -2.0929,-15.581 -0.23255,-1.3953 -0.23255,-2.7906 -0.23255,-4.4184 v -3.7208 c 0.46509,-3.9533 1.8604,-7.6741 3.9533,-10.697 0.93019,-1.6278 1.8604,-3.2557 2.558,-5.116 l 2.558,-7.4415 c 0.23255,-0.93019 0.69764,-1.6278 0.93019,-2.3255 1.627797,-5.3486 2.790597,-10.697 3.023097,-16.046 z"
     id="path2"
     inkscape:connector-curvature="0" />
  <text
     xml:space="preserve"
     style="font-style:normal;font-variant:normal;font-weight:normal;font-stretch:normal;font-size:70.75547791px;line-height:125%;font-family:'EB Garamond SC';-inkscape-font-specification:'EB Garamond SC, Normal';font-variant-ligatures:normal;font-variant-caps:normal;font-variant-numeric:normal;font-feature-settings:normal;text-align:center;letter-spacing:0px;word-spacing:0px;writing-mode:lr-tb;text-anchor:middle;fill:#000000;fill-opacity:1;stroke:none;stroke-width:4.85263538px;stroke-linecap:butt;stroke-linejoin:miter;stroke-opacity:1"
     x="448.9733"
     y="644.23932"
     id="text819"
     transform="scale(0.83981615,1.1907368)"><tspan
       sodipodi:role="line"
       x="448.9733"
       y="644.23932"
       style="font-style:normal;font-variant:normal;font-weight:normal;font-stretch:normal;font-size:70.75547791px;font-family:'EB Garamond SC';-inkscape-font-specification:'EB Garamond SC, Normal';font-variant-ligatures:normal;font-variant-position:normal;font-variant-caps:normal;font-variant-numeric:normal;font-feature-settings:normal;text-align:center;writing-mode:lr-tb;text-anchor:middle;fill:#000000;stroke-width:4.85263538px"
       id="tspan821">FERME DE GOUET - FÉLIX SIPMA</tspan><tspan
       sodipodi:role="line"
       x="448.9733"
       y="732.68365"
       style="font-style:normal;font-variant:normal;font-weight:normal;font-stretch:normal;font-size:70.75547791px;font-family:'EB Garamond SC';-inkscape-font-specification:'EB Garamond SC, Normal';font-variant-ligatures:normal;font-variant-position:normal;font-variant-caps:normal;font-variant-numeric:normal;font-feature-settings:normal;text-align:center;writing-mode:lr-tb;text-anchor:middle;fill:#000000;stroke-width:4.85263538px"
       id="tspan825">42220 LA VERSANNE</tspan></text>
  <path
     style="color:#000000;display:inline;overflow:visible;visibility:visible;opacity:1;fill:none;fill-opacity:1;fill-rule:nonzero;stroke:#000000;stroke-width:41.23534012;stroke-linecap:round;stroke-linejoin:miter;stroke-miterlimit:4;stroke-dasharray:none;stroke-dashoffset:0;stroke-opacity:1;marker:none;enable-background:accumulate"
     id="path827"
     sodipodi:type="arc"
     sodipodi:cx="377.49829"
     sodipodi:cy="525.82959"
     sodipodi:rx="522.72607"
     sodipodi:ry="505.81393"
     sodipodi:start="0"
     sodipodi:end="6.2811121"
     d="M 900.22437,525.82959 A 522.72607,505.81393 0 0 1 377.76922,1031.6435 522.72607,505.81393 0 0 1 -145.2275,526.35392 522.72607,505.81393 0 0 1 376.6855,20.016267 522.72607,505.81393 0 0 1 900.22324,524.78093"
     sodipodi:open="true" />
</svg>
